G75*
%MOIN*%
%OFA0B0*%
%FSLAX25Y25*%
%IPPOS*%
%LPD*%
%AMOC8*
5,1,8,0,0,1.08239X$1,22.5*
%
%ADD10C,0.00000*%
%ADD11C,0.01600*%
D10*
X0005500Y0003008D02*
X0010500Y0002008D01*
X0098750Y0013008D02*
X0098752Y0013091D01*
X0098758Y0013174D01*
X0098768Y0013257D01*
X0098782Y0013339D01*
X0098799Y0013421D01*
X0098821Y0013501D01*
X0098846Y0013580D01*
X0098875Y0013658D01*
X0098908Y0013735D01*
X0098945Y0013810D01*
X0098984Y0013883D01*
X0099028Y0013954D01*
X0099074Y0014023D01*
X0099124Y0014090D01*
X0099177Y0014154D01*
X0099233Y0014216D01*
X0099292Y0014275D01*
X0099354Y0014331D01*
X0099418Y0014384D01*
X0099485Y0014434D01*
X0099554Y0014480D01*
X0099625Y0014524D01*
X0099698Y0014563D01*
X0099773Y0014600D01*
X0099850Y0014633D01*
X0099928Y0014662D01*
X0100007Y0014687D01*
X0100087Y0014709D01*
X0100169Y0014726D01*
X0100251Y0014740D01*
X0100334Y0014750D01*
X0100417Y0014756D01*
X0100500Y0014758D01*
X0100583Y0014756D01*
X0100666Y0014750D01*
X0100749Y0014740D01*
X0100831Y0014726D01*
X0100913Y0014709D01*
X0100993Y0014687D01*
X0101072Y0014662D01*
X0101150Y0014633D01*
X0101227Y0014600D01*
X0101302Y0014563D01*
X0101375Y0014524D01*
X0101446Y0014480D01*
X0101515Y0014434D01*
X0101582Y0014384D01*
X0101646Y0014331D01*
X0101708Y0014275D01*
X0101767Y0014216D01*
X0101823Y0014154D01*
X0101876Y0014090D01*
X0101926Y0014023D01*
X0101972Y0013954D01*
X0102016Y0013883D01*
X0102055Y0013810D01*
X0102092Y0013735D01*
X0102125Y0013658D01*
X0102154Y0013580D01*
X0102179Y0013501D01*
X0102201Y0013421D01*
X0102218Y0013339D01*
X0102232Y0013257D01*
X0102242Y0013174D01*
X0102248Y0013091D01*
X0102250Y0013008D01*
X0102248Y0012925D01*
X0102242Y0012842D01*
X0102232Y0012759D01*
X0102218Y0012677D01*
X0102201Y0012595D01*
X0102179Y0012515D01*
X0102154Y0012436D01*
X0102125Y0012358D01*
X0102092Y0012281D01*
X0102055Y0012206D01*
X0102016Y0012133D01*
X0101972Y0012062D01*
X0101926Y0011993D01*
X0101876Y0011926D01*
X0101823Y0011862D01*
X0101767Y0011800D01*
X0101708Y0011741D01*
X0101646Y0011685D01*
X0101582Y0011632D01*
X0101515Y0011582D01*
X0101446Y0011536D01*
X0101375Y0011492D01*
X0101302Y0011453D01*
X0101227Y0011416D01*
X0101150Y0011383D01*
X0101072Y0011354D01*
X0100993Y0011329D01*
X0100913Y0011307D01*
X0100831Y0011290D01*
X0100749Y0011276D01*
X0100666Y0011266D01*
X0100583Y0011260D01*
X0100500Y0011258D01*
X0100417Y0011260D01*
X0100334Y0011266D01*
X0100251Y0011276D01*
X0100169Y0011290D01*
X0100087Y0011307D01*
X0100007Y0011329D01*
X0099928Y0011354D01*
X0099850Y0011383D01*
X0099773Y0011416D01*
X0099698Y0011453D01*
X0099625Y0011492D01*
X0099554Y0011536D01*
X0099485Y0011582D01*
X0099418Y0011632D01*
X0099354Y0011685D01*
X0099292Y0011741D01*
X0099233Y0011800D01*
X0099177Y0011862D01*
X0099124Y0011926D01*
X0099074Y0011993D01*
X0099028Y0012062D01*
X0098984Y0012133D01*
X0098945Y0012206D01*
X0098908Y0012281D01*
X0098875Y0012358D01*
X0098846Y0012436D01*
X0098821Y0012515D01*
X0098799Y0012595D01*
X0098782Y0012677D01*
X0098768Y0012759D01*
X0098758Y0012842D01*
X0098752Y0012925D01*
X0098750Y0013008D01*
X0118750Y0009008D02*
X0118752Y0009091D01*
X0118758Y0009174D01*
X0118768Y0009257D01*
X0118782Y0009339D01*
X0118799Y0009421D01*
X0118821Y0009501D01*
X0118846Y0009580D01*
X0118875Y0009658D01*
X0118908Y0009735D01*
X0118945Y0009810D01*
X0118984Y0009883D01*
X0119028Y0009954D01*
X0119074Y0010023D01*
X0119124Y0010090D01*
X0119177Y0010154D01*
X0119233Y0010216D01*
X0119292Y0010275D01*
X0119354Y0010331D01*
X0119418Y0010384D01*
X0119485Y0010434D01*
X0119554Y0010480D01*
X0119625Y0010524D01*
X0119698Y0010563D01*
X0119773Y0010600D01*
X0119850Y0010633D01*
X0119928Y0010662D01*
X0120007Y0010687D01*
X0120087Y0010709D01*
X0120169Y0010726D01*
X0120251Y0010740D01*
X0120334Y0010750D01*
X0120417Y0010756D01*
X0120500Y0010758D01*
X0120583Y0010756D01*
X0120666Y0010750D01*
X0120749Y0010740D01*
X0120831Y0010726D01*
X0120913Y0010709D01*
X0120993Y0010687D01*
X0121072Y0010662D01*
X0121150Y0010633D01*
X0121227Y0010600D01*
X0121302Y0010563D01*
X0121375Y0010524D01*
X0121446Y0010480D01*
X0121515Y0010434D01*
X0121582Y0010384D01*
X0121646Y0010331D01*
X0121708Y0010275D01*
X0121767Y0010216D01*
X0121823Y0010154D01*
X0121876Y0010090D01*
X0121926Y0010023D01*
X0121972Y0009954D01*
X0122016Y0009883D01*
X0122055Y0009810D01*
X0122092Y0009735D01*
X0122125Y0009658D01*
X0122154Y0009580D01*
X0122179Y0009501D01*
X0122201Y0009421D01*
X0122218Y0009339D01*
X0122232Y0009257D01*
X0122242Y0009174D01*
X0122248Y0009091D01*
X0122250Y0009008D01*
X0122248Y0008925D01*
X0122242Y0008842D01*
X0122232Y0008759D01*
X0122218Y0008677D01*
X0122201Y0008595D01*
X0122179Y0008515D01*
X0122154Y0008436D01*
X0122125Y0008358D01*
X0122092Y0008281D01*
X0122055Y0008206D01*
X0122016Y0008133D01*
X0121972Y0008062D01*
X0121926Y0007993D01*
X0121876Y0007926D01*
X0121823Y0007862D01*
X0121767Y0007800D01*
X0121708Y0007741D01*
X0121646Y0007685D01*
X0121582Y0007632D01*
X0121515Y0007582D01*
X0121446Y0007536D01*
X0121375Y0007492D01*
X0121302Y0007453D01*
X0121227Y0007416D01*
X0121150Y0007383D01*
X0121072Y0007354D01*
X0120993Y0007329D01*
X0120913Y0007307D01*
X0120831Y0007290D01*
X0120749Y0007276D01*
X0120666Y0007266D01*
X0120583Y0007260D01*
X0120500Y0007258D01*
X0120417Y0007260D01*
X0120334Y0007266D01*
X0120251Y0007276D01*
X0120169Y0007290D01*
X0120087Y0007307D01*
X0120007Y0007329D01*
X0119928Y0007354D01*
X0119850Y0007383D01*
X0119773Y0007416D01*
X0119698Y0007453D01*
X0119625Y0007492D01*
X0119554Y0007536D01*
X0119485Y0007582D01*
X0119418Y0007632D01*
X0119354Y0007685D01*
X0119292Y0007741D01*
X0119233Y0007800D01*
X0119177Y0007862D01*
X0119124Y0007926D01*
X0119074Y0007993D01*
X0119028Y0008062D01*
X0118984Y0008133D01*
X0118945Y0008206D01*
X0118908Y0008281D01*
X0118875Y0008358D01*
X0118846Y0008436D01*
X0118821Y0008515D01*
X0118799Y0008595D01*
X0118782Y0008677D01*
X0118768Y0008759D01*
X0118758Y0008842D01*
X0118752Y0008925D01*
X0118750Y0009008D01*
X0118750Y0017008D02*
X0118752Y0017091D01*
X0118758Y0017174D01*
X0118768Y0017257D01*
X0118782Y0017339D01*
X0118799Y0017421D01*
X0118821Y0017501D01*
X0118846Y0017580D01*
X0118875Y0017658D01*
X0118908Y0017735D01*
X0118945Y0017810D01*
X0118984Y0017883D01*
X0119028Y0017954D01*
X0119074Y0018023D01*
X0119124Y0018090D01*
X0119177Y0018154D01*
X0119233Y0018216D01*
X0119292Y0018275D01*
X0119354Y0018331D01*
X0119418Y0018384D01*
X0119485Y0018434D01*
X0119554Y0018480D01*
X0119625Y0018524D01*
X0119698Y0018563D01*
X0119773Y0018600D01*
X0119850Y0018633D01*
X0119928Y0018662D01*
X0120007Y0018687D01*
X0120087Y0018709D01*
X0120169Y0018726D01*
X0120251Y0018740D01*
X0120334Y0018750D01*
X0120417Y0018756D01*
X0120500Y0018758D01*
X0120583Y0018756D01*
X0120666Y0018750D01*
X0120749Y0018740D01*
X0120831Y0018726D01*
X0120913Y0018709D01*
X0120993Y0018687D01*
X0121072Y0018662D01*
X0121150Y0018633D01*
X0121227Y0018600D01*
X0121302Y0018563D01*
X0121375Y0018524D01*
X0121446Y0018480D01*
X0121515Y0018434D01*
X0121582Y0018384D01*
X0121646Y0018331D01*
X0121708Y0018275D01*
X0121767Y0018216D01*
X0121823Y0018154D01*
X0121876Y0018090D01*
X0121926Y0018023D01*
X0121972Y0017954D01*
X0122016Y0017883D01*
X0122055Y0017810D01*
X0122092Y0017735D01*
X0122125Y0017658D01*
X0122154Y0017580D01*
X0122179Y0017501D01*
X0122201Y0017421D01*
X0122218Y0017339D01*
X0122232Y0017257D01*
X0122242Y0017174D01*
X0122248Y0017091D01*
X0122250Y0017008D01*
X0122248Y0016925D01*
X0122242Y0016842D01*
X0122232Y0016759D01*
X0122218Y0016677D01*
X0122201Y0016595D01*
X0122179Y0016515D01*
X0122154Y0016436D01*
X0122125Y0016358D01*
X0122092Y0016281D01*
X0122055Y0016206D01*
X0122016Y0016133D01*
X0121972Y0016062D01*
X0121926Y0015993D01*
X0121876Y0015926D01*
X0121823Y0015862D01*
X0121767Y0015800D01*
X0121708Y0015741D01*
X0121646Y0015685D01*
X0121582Y0015632D01*
X0121515Y0015582D01*
X0121446Y0015536D01*
X0121375Y0015492D01*
X0121302Y0015453D01*
X0121227Y0015416D01*
X0121150Y0015383D01*
X0121072Y0015354D01*
X0120993Y0015329D01*
X0120913Y0015307D01*
X0120831Y0015290D01*
X0120749Y0015276D01*
X0120666Y0015266D01*
X0120583Y0015260D01*
X0120500Y0015258D01*
X0120417Y0015260D01*
X0120334Y0015266D01*
X0120251Y0015276D01*
X0120169Y0015290D01*
X0120087Y0015307D01*
X0120007Y0015329D01*
X0119928Y0015354D01*
X0119850Y0015383D01*
X0119773Y0015416D01*
X0119698Y0015453D01*
X0119625Y0015492D01*
X0119554Y0015536D01*
X0119485Y0015582D01*
X0119418Y0015632D01*
X0119354Y0015685D01*
X0119292Y0015741D01*
X0119233Y0015800D01*
X0119177Y0015862D01*
X0119124Y0015926D01*
X0119074Y0015993D01*
X0119028Y0016062D01*
X0118984Y0016133D01*
X0118945Y0016206D01*
X0118908Y0016281D01*
X0118875Y0016358D01*
X0118846Y0016436D01*
X0118821Y0016515D01*
X0118799Y0016595D01*
X0118782Y0016677D01*
X0118768Y0016759D01*
X0118758Y0016842D01*
X0118752Y0016925D01*
X0118750Y0017008D01*
D11*
X0005500Y0003008D02*
X0005500Y0183008D01*
X0190500Y0183008D01*
X0190500Y0003008D01*
X0005500Y0003008D01*
M02*
