G75*
%MOIN*%
%OFA0B0*%
%FSLAX25Y25*%
%IPPOS*%
%LPD*%
%AMOC8*
5,1,8,0,0,1.08239X$1,22.5*
%
%ADD10C,0.00000*%
%ADD11C,0.01600*%
%ADD12C,0.00400*%
%ADD13C,0.00600*%
%ADD14R,0.05118X0.01969*%
%ADD15C,0.00300*%
%ADD16C,0.00800*%
%ADD17C,0.01000*%
%ADD18R,0.01574X0.04528*%
%ADD19R,0.01575X0.04528*%
%ADD20R,0.01575X0.04528*%
%ADD21R,0.04528X0.01574*%
%ADD22R,0.04528X0.01575*%
%ADD23R,0.04528X0.01575*%
%ADD24R,0.05600X0.01400*%
%ADD25R,0.01969X0.05118*%
%ADD26C,0.00500*%
%ADD27C,0.00200*%
%ADD28C,0.02400*%
%ADD29R,0.02000X0.02000*%
%ADD30R,0.02559X0.05512*%
%ADD31R,0.06693X0.02953*%
%ADD32C,0.00100*%
%ADD33R,0.00591X0.01181*%
%ADD34R,0.01181X0.01181*%
%ADD35R,0.05315X0.02362*%
%ADD36R,0.05512X0.02559*%
D10*
X0005500Y0003008D02*
X0010500Y0002008D01*
X0098750Y0013008D02*
X0098752Y0013091D01*
X0098758Y0013174D01*
X0098768Y0013257D01*
X0098782Y0013339D01*
X0098799Y0013421D01*
X0098821Y0013501D01*
X0098846Y0013580D01*
X0098875Y0013658D01*
X0098908Y0013735D01*
X0098945Y0013810D01*
X0098984Y0013883D01*
X0099028Y0013954D01*
X0099074Y0014023D01*
X0099124Y0014090D01*
X0099177Y0014154D01*
X0099233Y0014216D01*
X0099292Y0014275D01*
X0099354Y0014331D01*
X0099418Y0014384D01*
X0099485Y0014434D01*
X0099554Y0014480D01*
X0099625Y0014524D01*
X0099698Y0014563D01*
X0099773Y0014600D01*
X0099850Y0014633D01*
X0099928Y0014662D01*
X0100007Y0014687D01*
X0100087Y0014709D01*
X0100169Y0014726D01*
X0100251Y0014740D01*
X0100334Y0014750D01*
X0100417Y0014756D01*
X0100500Y0014758D01*
X0100583Y0014756D01*
X0100666Y0014750D01*
X0100749Y0014740D01*
X0100831Y0014726D01*
X0100913Y0014709D01*
X0100993Y0014687D01*
X0101072Y0014662D01*
X0101150Y0014633D01*
X0101227Y0014600D01*
X0101302Y0014563D01*
X0101375Y0014524D01*
X0101446Y0014480D01*
X0101515Y0014434D01*
X0101582Y0014384D01*
X0101646Y0014331D01*
X0101708Y0014275D01*
X0101767Y0014216D01*
X0101823Y0014154D01*
X0101876Y0014090D01*
X0101926Y0014023D01*
X0101972Y0013954D01*
X0102016Y0013883D01*
X0102055Y0013810D01*
X0102092Y0013735D01*
X0102125Y0013658D01*
X0102154Y0013580D01*
X0102179Y0013501D01*
X0102201Y0013421D01*
X0102218Y0013339D01*
X0102232Y0013257D01*
X0102242Y0013174D01*
X0102248Y0013091D01*
X0102250Y0013008D01*
X0102248Y0012925D01*
X0102242Y0012842D01*
X0102232Y0012759D01*
X0102218Y0012677D01*
X0102201Y0012595D01*
X0102179Y0012515D01*
X0102154Y0012436D01*
X0102125Y0012358D01*
X0102092Y0012281D01*
X0102055Y0012206D01*
X0102016Y0012133D01*
X0101972Y0012062D01*
X0101926Y0011993D01*
X0101876Y0011926D01*
X0101823Y0011862D01*
X0101767Y0011800D01*
X0101708Y0011741D01*
X0101646Y0011685D01*
X0101582Y0011632D01*
X0101515Y0011582D01*
X0101446Y0011536D01*
X0101375Y0011492D01*
X0101302Y0011453D01*
X0101227Y0011416D01*
X0101150Y0011383D01*
X0101072Y0011354D01*
X0100993Y0011329D01*
X0100913Y0011307D01*
X0100831Y0011290D01*
X0100749Y0011276D01*
X0100666Y0011266D01*
X0100583Y0011260D01*
X0100500Y0011258D01*
X0100417Y0011260D01*
X0100334Y0011266D01*
X0100251Y0011276D01*
X0100169Y0011290D01*
X0100087Y0011307D01*
X0100007Y0011329D01*
X0099928Y0011354D01*
X0099850Y0011383D01*
X0099773Y0011416D01*
X0099698Y0011453D01*
X0099625Y0011492D01*
X0099554Y0011536D01*
X0099485Y0011582D01*
X0099418Y0011632D01*
X0099354Y0011685D01*
X0099292Y0011741D01*
X0099233Y0011800D01*
X0099177Y0011862D01*
X0099124Y0011926D01*
X0099074Y0011993D01*
X0099028Y0012062D01*
X0098984Y0012133D01*
X0098945Y0012206D01*
X0098908Y0012281D01*
X0098875Y0012358D01*
X0098846Y0012436D01*
X0098821Y0012515D01*
X0098799Y0012595D01*
X0098782Y0012677D01*
X0098768Y0012759D01*
X0098758Y0012842D01*
X0098752Y0012925D01*
X0098750Y0013008D01*
X0118750Y0009008D02*
X0118752Y0009091D01*
X0118758Y0009174D01*
X0118768Y0009257D01*
X0118782Y0009339D01*
X0118799Y0009421D01*
X0118821Y0009501D01*
X0118846Y0009580D01*
X0118875Y0009658D01*
X0118908Y0009735D01*
X0118945Y0009810D01*
X0118984Y0009883D01*
X0119028Y0009954D01*
X0119074Y0010023D01*
X0119124Y0010090D01*
X0119177Y0010154D01*
X0119233Y0010216D01*
X0119292Y0010275D01*
X0119354Y0010331D01*
X0119418Y0010384D01*
X0119485Y0010434D01*
X0119554Y0010480D01*
X0119625Y0010524D01*
X0119698Y0010563D01*
X0119773Y0010600D01*
X0119850Y0010633D01*
X0119928Y0010662D01*
X0120007Y0010687D01*
X0120087Y0010709D01*
X0120169Y0010726D01*
X0120251Y0010740D01*
X0120334Y0010750D01*
X0120417Y0010756D01*
X0120500Y0010758D01*
X0120583Y0010756D01*
X0120666Y0010750D01*
X0120749Y0010740D01*
X0120831Y0010726D01*
X0120913Y0010709D01*
X0120993Y0010687D01*
X0121072Y0010662D01*
X0121150Y0010633D01*
X0121227Y0010600D01*
X0121302Y0010563D01*
X0121375Y0010524D01*
X0121446Y0010480D01*
X0121515Y0010434D01*
X0121582Y0010384D01*
X0121646Y0010331D01*
X0121708Y0010275D01*
X0121767Y0010216D01*
X0121823Y0010154D01*
X0121876Y0010090D01*
X0121926Y0010023D01*
X0121972Y0009954D01*
X0122016Y0009883D01*
X0122055Y0009810D01*
X0122092Y0009735D01*
X0122125Y0009658D01*
X0122154Y0009580D01*
X0122179Y0009501D01*
X0122201Y0009421D01*
X0122218Y0009339D01*
X0122232Y0009257D01*
X0122242Y0009174D01*
X0122248Y0009091D01*
X0122250Y0009008D01*
X0122248Y0008925D01*
X0122242Y0008842D01*
X0122232Y0008759D01*
X0122218Y0008677D01*
X0122201Y0008595D01*
X0122179Y0008515D01*
X0122154Y0008436D01*
X0122125Y0008358D01*
X0122092Y0008281D01*
X0122055Y0008206D01*
X0122016Y0008133D01*
X0121972Y0008062D01*
X0121926Y0007993D01*
X0121876Y0007926D01*
X0121823Y0007862D01*
X0121767Y0007800D01*
X0121708Y0007741D01*
X0121646Y0007685D01*
X0121582Y0007632D01*
X0121515Y0007582D01*
X0121446Y0007536D01*
X0121375Y0007492D01*
X0121302Y0007453D01*
X0121227Y0007416D01*
X0121150Y0007383D01*
X0121072Y0007354D01*
X0120993Y0007329D01*
X0120913Y0007307D01*
X0120831Y0007290D01*
X0120749Y0007276D01*
X0120666Y0007266D01*
X0120583Y0007260D01*
X0120500Y0007258D01*
X0120417Y0007260D01*
X0120334Y0007266D01*
X0120251Y0007276D01*
X0120169Y0007290D01*
X0120087Y0007307D01*
X0120007Y0007329D01*
X0119928Y0007354D01*
X0119850Y0007383D01*
X0119773Y0007416D01*
X0119698Y0007453D01*
X0119625Y0007492D01*
X0119554Y0007536D01*
X0119485Y0007582D01*
X0119418Y0007632D01*
X0119354Y0007685D01*
X0119292Y0007741D01*
X0119233Y0007800D01*
X0119177Y0007862D01*
X0119124Y0007926D01*
X0119074Y0007993D01*
X0119028Y0008062D01*
X0118984Y0008133D01*
X0118945Y0008206D01*
X0118908Y0008281D01*
X0118875Y0008358D01*
X0118846Y0008436D01*
X0118821Y0008515D01*
X0118799Y0008595D01*
X0118782Y0008677D01*
X0118768Y0008759D01*
X0118758Y0008842D01*
X0118752Y0008925D01*
X0118750Y0009008D01*
X0118750Y0017008D02*
X0118752Y0017091D01*
X0118758Y0017174D01*
X0118768Y0017257D01*
X0118782Y0017339D01*
X0118799Y0017421D01*
X0118821Y0017501D01*
X0118846Y0017580D01*
X0118875Y0017658D01*
X0118908Y0017735D01*
X0118945Y0017810D01*
X0118984Y0017883D01*
X0119028Y0017954D01*
X0119074Y0018023D01*
X0119124Y0018090D01*
X0119177Y0018154D01*
X0119233Y0018216D01*
X0119292Y0018275D01*
X0119354Y0018331D01*
X0119418Y0018384D01*
X0119485Y0018434D01*
X0119554Y0018480D01*
X0119625Y0018524D01*
X0119698Y0018563D01*
X0119773Y0018600D01*
X0119850Y0018633D01*
X0119928Y0018662D01*
X0120007Y0018687D01*
X0120087Y0018709D01*
X0120169Y0018726D01*
X0120251Y0018740D01*
X0120334Y0018750D01*
X0120417Y0018756D01*
X0120500Y0018758D01*
X0120583Y0018756D01*
X0120666Y0018750D01*
X0120749Y0018740D01*
X0120831Y0018726D01*
X0120913Y0018709D01*
X0120993Y0018687D01*
X0121072Y0018662D01*
X0121150Y0018633D01*
X0121227Y0018600D01*
X0121302Y0018563D01*
X0121375Y0018524D01*
X0121446Y0018480D01*
X0121515Y0018434D01*
X0121582Y0018384D01*
X0121646Y0018331D01*
X0121708Y0018275D01*
X0121767Y0018216D01*
X0121823Y0018154D01*
X0121876Y0018090D01*
X0121926Y0018023D01*
X0121972Y0017954D01*
X0122016Y0017883D01*
X0122055Y0017810D01*
X0122092Y0017735D01*
X0122125Y0017658D01*
X0122154Y0017580D01*
X0122179Y0017501D01*
X0122201Y0017421D01*
X0122218Y0017339D01*
X0122232Y0017257D01*
X0122242Y0017174D01*
X0122248Y0017091D01*
X0122250Y0017008D01*
X0122248Y0016925D01*
X0122242Y0016842D01*
X0122232Y0016759D01*
X0122218Y0016677D01*
X0122201Y0016595D01*
X0122179Y0016515D01*
X0122154Y0016436D01*
X0122125Y0016358D01*
X0122092Y0016281D01*
X0122055Y0016206D01*
X0122016Y0016133D01*
X0121972Y0016062D01*
X0121926Y0015993D01*
X0121876Y0015926D01*
X0121823Y0015862D01*
X0121767Y0015800D01*
X0121708Y0015741D01*
X0121646Y0015685D01*
X0121582Y0015632D01*
X0121515Y0015582D01*
X0121446Y0015536D01*
X0121375Y0015492D01*
X0121302Y0015453D01*
X0121227Y0015416D01*
X0121150Y0015383D01*
X0121072Y0015354D01*
X0120993Y0015329D01*
X0120913Y0015307D01*
X0120831Y0015290D01*
X0120749Y0015276D01*
X0120666Y0015266D01*
X0120583Y0015260D01*
X0120500Y0015258D01*
X0120417Y0015260D01*
X0120334Y0015266D01*
X0120251Y0015276D01*
X0120169Y0015290D01*
X0120087Y0015307D01*
X0120007Y0015329D01*
X0119928Y0015354D01*
X0119850Y0015383D01*
X0119773Y0015416D01*
X0119698Y0015453D01*
X0119625Y0015492D01*
X0119554Y0015536D01*
X0119485Y0015582D01*
X0119418Y0015632D01*
X0119354Y0015685D01*
X0119292Y0015741D01*
X0119233Y0015800D01*
X0119177Y0015862D01*
X0119124Y0015926D01*
X0119074Y0015993D01*
X0119028Y0016062D01*
X0118984Y0016133D01*
X0118945Y0016206D01*
X0118908Y0016281D01*
X0118875Y0016358D01*
X0118846Y0016436D01*
X0118821Y0016515D01*
X0118799Y0016595D01*
X0118782Y0016677D01*
X0118768Y0016759D01*
X0118758Y0016842D01*
X0118752Y0016925D01*
X0118750Y0017008D01*
D11*
X0005500Y0003008D02*
X0005500Y0183008D01*
X0190500Y0183008D01*
X0190500Y0003008D01*
X0005500Y0003008D01*
X0185500Y0013008D02*
X0185741Y0013173D01*
X0185977Y0013343D01*
X0186210Y0013520D01*
X0186438Y0013701D01*
X0186661Y0013889D01*
X0186880Y0014081D01*
X0187095Y0014279D01*
X0187304Y0014482D01*
X0187508Y0014690D01*
X0187708Y0014903D01*
X0187902Y0015121D01*
X0188090Y0015343D01*
X0188274Y0015570D01*
X0188451Y0015801D01*
X0188623Y0016037D01*
X0188790Y0016276D01*
X0188950Y0016520D01*
X0189105Y0016767D01*
X0189253Y0017018D01*
X0189395Y0017273D01*
X0189531Y0017531D01*
X0189661Y0017792D01*
X0189784Y0018056D01*
X0189901Y0018323D01*
X0190012Y0018593D01*
X0190116Y0018866D01*
X0190213Y0019141D01*
X0190303Y0019418D01*
X0190387Y0019697D01*
X0190464Y0019979D01*
X0190534Y0020262D01*
X0190597Y0020547D01*
X0190653Y0020833D01*
X0190703Y0021120D01*
X0190745Y0021409D01*
X0190780Y0021698D01*
X0190809Y0021988D01*
X0190830Y0022279D01*
X0190844Y0022571D01*
X0190851Y0022862D01*
X0190851Y0023154D01*
X0190844Y0023445D01*
X0190830Y0023737D01*
X0190809Y0024028D01*
X0190780Y0024318D01*
X0190745Y0024607D01*
X0190703Y0024896D01*
X0190653Y0025183D01*
X0190597Y0025469D01*
X0190534Y0025754D01*
X0190464Y0026037D01*
X0190387Y0026319D01*
X0190303Y0026598D01*
X0190213Y0026875D01*
X0190116Y0027150D01*
X0190012Y0027423D01*
X0189901Y0027693D01*
X0189784Y0027960D01*
X0189661Y0028224D01*
X0189531Y0028485D01*
X0189395Y0028743D01*
X0189253Y0028998D01*
X0189105Y0029249D01*
X0188950Y0029496D01*
X0188790Y0029740D01*
X0188623Y0029979D01*
X0188451Y0030215D01*
X0188274Y0030446D01*
X0188090Y0030673D01*
X0187902Y0030895D01*
X0187708Y0031113D01*
X0187508Y0031326D01*
X0187304Y0031534D01*
X0187095Y0031737D01*
X0186880Y0031935D01*
X0186661Y0032127D01*
X0186438Y0032315D01*
X0186210Y0032496D01*
X0185977Y0032673D01*
X0185741Y0032843D01*
X0185500Y0033008D01*
X0185500Y0013008D01*
D12*
X0161665Y0018208D02*
X0159363Y0020510D01*
X0158596Y0019743D02*
X0161665Y0022812D01*
X0158596Y0022812D02*
X0158596Y0018208D01*
X0157061Y0018208D02*
X0153992Y0018208D01*
X0155527Y0018208D02*
X0155527Y0022812D01*
X0153992Y0021278D01*
X0117862Y0029367D02*
X0117862Y0036650D01*
X0113138Y0036650D02*
X0113138Y0029367D01*
X0104946Y0029322D02*
X0100342Y0029322D01*
X0101876Y0027787D01*
X0104946Y0027787D02*
X0104946Y0030856D01*
X0104178Y0032391D02*
X0104946Y0033158D01*
X0104946Y0034693D01*
X0104178Y0035460D01*
X0103411Y0035460D01*
X0102644Y0034693D01*
X0102644Y0032391D01*
X0104178Y0032391D01*
X0102644Y0032391D02*
X0101109Y0033926D01*
X0100342Y0035460D01*
X0100342Y0036995D02*
X0101876Y0038530D01*
X0100342Y0040064D01*
X0104946Y0040064D01*
X0104946Y0041599D02*
X0100342Y0041599D01*
X0102644Y0041599D02*
X0102644Y0044668D01*
X0101876Y0046203D02*
X0101876Y0049272D01*
X0104946Y0046203D01*
X0104946Y0049272D01*
X0104946Y0044668D02*
X0100342Y0044668D01*
X0100342Y0036995D02*
X0104946Y0036995D01*
X0113138Y0045617D02*
X0113138Y0052900D01*
X0117862Y0052900D02*
X0117862Y0045617D01*
X0086550Y0045882D02*
X0081946Y0045882D01*
X0083481Y0044347D01*
X0081946Y0042812D01*
X0086550Y0042812D01*
X0086550Y0041278D02*
X0086550Y0038208D01*
X0086550Y0039743D02*
X0081946Y0039743D01*
X0083481Y0038208D01*
X0082481Y0028218D02*
X0084015Y0025916D01*
X0085550Y0028218D01*
X0085550Y0025916D02*
X0080946Y0025916D01*
X0081713Y0024382D02*
X0084783Y0021312D01*
X0085550Y0022080D01*
X0085550Y0023614D01*
X0084783Y0024382D01*
X0081713Y0024382D01*
X0080946Y0023614D01*
X0080946Y0022080D01*
X0081713Y0021312D01*
X0084783Y0021312D01*
X0085550Y0019778D02*
X0085550Y0016708D01*
X0085550Y0018243D02*
X0080946Y0018243D01*
X0082481Y0016708D01*
X0061642Y0010371D02*
X0054358Y0010371D01*
X0054358Y0005646D02*
X0061642Y0005646D01*
X0024112Y0028117D02*
X0024112Y0035400D01*
X0019388Y0035400D02*
X0019388Y0028117D01*
X0016800Y0051083D02*
X0016800Y0054153D01*
X0016800Y0052618D02*
X0012196Y0052618D01*
X0013731Y0051083D01*
X0012963Y0055687D02*
X0012196Y0056455D01*
X0012196Y0057989D01*
X0012963Y0058757D01*
X0016033Y0055687D01*
X0016800Y0056455D01*
X0016800Y0057989D01*
X0016033Y0058757D01*
X0012963Y0058757D01*
X0012196Y0060291D02*
X0016800Y0060291D01*
X0015265Y0060291D02*
X0013731Y0062593D01*
X0015265Y0060291D02*
X0016800Y0062593D01*
X0016033Y0055687D02*
X0012963Y0055687D01*
X0052571Y0076927D02*
X0054106Y0075393D01*
X0052571Y0076927D02*
X0057175Y0076927D01*
X0057175Y0075393D02*
X0057175Y0078462D01*
X0057175Y0079997D02*
X0052571Y0079997D01*
X0054106Y0082299D02*
X0055640Y0079997D01*
X0057175Y0082299D01*
X0061946Y0080906D02*
X0061946Y0078604D01*
X0066550Y0078604D01*
X0066550Y0080906D01*
X0065783Y0081674D01*
X0062713Y0081674D01*
X0061946Y0080906D01*
X0061946Y0077070D02*
X0061946Y0074000D01*
X0066550Y0074000D01*
X0066550Y0077070D01*
X0064248Y0075535D02*
X0064248Y0074000D01*
X0064248Y0072466D02*
X0065015Y0071698D01*
X0065015Y0069397D01*
X0065015Y0070931D02*
X0066550Y0072466D01*
X0064248Y0072466D02*
X0062713Y0072466D01*
X0061946Y0071698D01*
X0061946Y0069397D01*
X0066550Y0069397D01*
X0073196Y0075993D02*
X0077800Y0075993D01*
X0077800Y0074458D02*
X0077800Y0077528D01*
X0077800Y0079062D02*
X0073196Y0079062D01*
X0075498Y0079830D02*
X0077800Y0082132D01*
X0076265Y0079062D02*
X0073196Y0082132D01*
X0073196Y0075993D02*
X0074731Y0074458D01*
X0081946Y0073375D02*
X0086550Y0073375D01*
X0086550Y0076445D01*
X0086550Y0077979D02*
X0086550Y0080281D01*
X0085783Y0081049D01*
X0082713Y0081049D01*
X0081946Y0080281D01*
X0081946Y0077979D01*
X0086550Y0077979D01*
X0084248Y0074910D02*
X0084248Y0073375D01*
X0084248Y0071841D02*
X0085015Y0071073D01*
X0085015Y0068772D01*
X0085015Y0070306D02*
X0086550Y0071841D01*
X0084248Y0071841D02*
X0082713Y0071841D01*
X0081946Y0071073D01*
X0081946Y0068772D01*
X0086550Y0068772D01*
X0092402Y0069209D02*
X0092402Y0076808D01*
X0098598Y0076808D02*
X0098598Y0069209D01*
X0102402Y0069209D02*
X0102402Y0076808D01*
X0108598Y0076808D02*
X0108598Y0069209D01*
X0107231Y0082583D02*
X0105696Y0084118D01*
X0110300Y0084118D01*
X0110300Y0082583D02*
X0110300Y0085653D01*
X0109533Y0087187D02*
X0106463Y0087187D01*
X0105696Y0087955D01*
X0105696Y0089489D01*
X0106463Y0090257D01*
X0109533Y0087187D01*
X0110300Y0087955D01*
X0110300Y0089489D01*
X0109533Y0090257D01*
X0106463Y0090257D01*
X0107231Y0091791D02*
X0109533Y0091791D01*
X0110300Y0092558D01*
X0110300Y0094860D01*
X0107231Y0094860D01*
X0107998Y0096395D02*
X0107998Y0097930D01*
X0105696Y0096395D02*
X0105696Y0099464D01*
X0105696Y0096395D02*
X0110300Y0096395D01*
X0099675Y0096500D02*
X0096606Y0096500D01*
X0096606Y0098802D01*
X0097373Y0099570D01*
X0099675Y0099570D01*
X0099675Y0101104D02*
X0095071Y0101104D01*
X0095071Y0104174D01*
X0097373Y0102639D02*
X0097373Y0101104D01*
X0095838Y0094966D02*
X0098908Y0091897D01*
X0099675Y0092664D01*
X0099675Y0094198D01*
X0098908Y0094966D01*
X0095838Y0094966D01*
X0095071Y0094198D01*
X0095071Y0092664D01*
X0095838Y0091897D01*
X0098908Y0091897D01*
X0098908Y0090362D02*
X0095838Y0090362D01*
X0098908Y0087293D01*
X0099675Y0088060D01*
X0099675Y0089595D01*
X0098908Y0090362D01*
X0095838Y0090362D02*
X0095071Y0089595D01*
X0095071Y0088060D01*
X0095838Y0087293D01*
X0098908Y0087293D01*
X0099675Y0085758D02*
X0099675Y0082689D01*
X0099675Y0084223D02*
X0095071Y0084223D01*
X0096606Y0082689D01*
X0086086Y0086862D02*
X0086086Y0090405D01*
X0081164Y0090503D02*
X0081164Y0086862D01*
X0066711Y0086862D02*
X0066711Y0090405D01*
X0061789Y0090503D02*
X0061789Y0086862D01*
X0049165Y0093833D02*
X0046096Y0093833D01*
X0049165Y0096903D01*
X0049165Y0097670D01*
X0048398Y0098437D01*
X0046863Y0098437D01*
X0046096Y0097670D01*
X0044561Y0097670D02*
X0044561Y0096903D01*
X0041492Y0093833D01*
X0044561Y0093833D01*
X0044561Y0097670D02*
X0043794Y0098437D01*
X0042259Y0098437D01*
X0041492Y0097670D01*
X0039165Y0097670D02*
X0039165Y0096903D01*
X0036096Y0093833D01*
X0039165Y0093833D01*
X0034561Y0093833D02*
X0031492Y0093833D01*
X0034561Y0096903D01*
X0034561Y0097670D01*
X0033794Y0098437D01*
X0032259Y0098437D01*
X0031492Y0097670D01*
X0036096Y0097670D02*
X0036863Y0098437D01*
X0038398Y0098437D01*
X0039165Y0097670D01*
X0046467Y0120708D02*
X0048002Y0120708D01*
X0048769Y0121476D01*
X0048769Y0123010D01*
X0047235Y0123010D01*
X0048769Y0124545D02*
X0048002Y0125312D01*
X0046467Y0125312D01*
X0045700Y0124545D01*
X0045700Y0121476D01*
X0046467Y0120708D01*
X0050304Y0120708D02*
X0050304Y0125312D01*
X0053373Y0120708D01*
X0053373Y0125312D01*
X0054908Y0125312D02*
X0057210Y0125312D01*
X0057977Y0124545D01*
X0057977Y0121476D01*
X0057210Y0120708D01*
X0054908Y0120708D01*
X0054908Y0125312D01*
X0075073Y0127813D02*
X0075073Y0122608D01*
X0078542Y0122608D01*
X0080229Y0123476D02*
X0080229Y0125211D01*
X0081096Y0126078D01*
X0082831Y0126078D01*
X0083699Y0125211D01*
X0083699Y0124343D01*
X0080229Y0124343D01*
X0080229Y0123476D02*
X0081096Y0122608D01*
X0082831Y0122608D01*
X0085385Y0123476D02*
X0085385Y0125211D01*
X0086253Y0126078D01*
X0088855Y0126078D01*
X0088855Y0127813D02*
X0088855Y0122608D01*
X0086253Y0122608D01*
X0085385Y0123476D01*
X0095698Y0123476D02*
X0096566Y0122608D01*
X0099168Y0122608D01*
X0100855Y0123476D02*
X0101722Y0122608D01*
X0103457Y0122608D01*
X0104324Y0123476D01*
X0104324Y0125211D01*
X0103457Y0126078D01*
X0101722Y0126078D01*
X0100855Y0125211D01*
X0100855Y0123476D01*
X0099168Y0126078D02*
X0096566Y0126078D01*
X0095698Y0125211D01*
X0095698Y0123476D01*
X0106011Y0122608D02*
X0106011Y0126078D01*
X0108613Y0126078D01*
X0109481Y0125211D01*
X0109481Y0122608D01*
X0112035Y0123476D02*
X0112902Y0122608D01*
X0112035Y0123476D02*
X0112035Y0126945D01*
X0111167Y0126078D02*
X0112902Y0126078D01*
X0114605Y0126078D02*
X0114605Y0122608D01*
X0114605Y0124343D02*
X0116340Y0126078D01*
X0117207Y0126078D01*
X0118902Y0125211D02*
X0118902Y0123476D01*
X0119769Y0122608D01*
X0121504Y0122608D01*
X0122372Y0123476D01*
X0122372Y0125211D01*
X0121504Y0126078D01*
X0119769Y0126078D01*
X0118902Y0125211D01*
X0124058Y0127813D02*
X0124926Y0127813D01*
X0124926Y0122608D01*
X0125793Y0122608D02*
X0124058Y0122608D01*
X0132652Y0126078D02*
X0134387Y0122608D01*
X0136122Y0126078D01*
X0137809Y0126078D02*
X0139544Y0127813D01*
X0139544Y0122608D01*
X0141278Y0122608D02*
X0137809Y0122608D01*
X0142965Y0122608D02*
X0143833Y0122608D01*
X0143833Y0123476D01*
X0142965Y0123476D01*
X0142965Y0122608D01*
X0145543Y0123476D02*
X0149013Y0126945D01*
X0149013Y0123476D01*
X0148146Y0122608D01*
X0146411Y0122608D01*
X0145543Y0123476D01*
X0145543Y0126945D01*
X0146411Y0127813D01*
X0148146Y0127813D01*
X0149013Y0126945D01*
X0081946Y0076445D02*
X0081946Y0073375D01*
X0029533Y0146897D02*
X0026463Y0146897D01*
X0025696Y0147664D01*
X0025696Y0149198D01*
X0026463Y0149966D01*
X0027998Y0149966D02*
X0027998Y0148431D01*
X0027998Y0149966D02*
X0029533Y0149966D01*
X0030300Y0149198D01*
X0030300Y0147664D01*
X0029533Y0146897D01*
X0030300Y0151500D02*
X0025696Y0151500D01*
X0030300Y0154570D01*
X0025696Y0154570D01*
X0025696Y0156104D02*
X0025696Y0158406D01*
X0026463Y0159174D01*
X0029533Y0159174D01*
X0030300Y0158406D01*
X0030300Y0156104D01*
X0025696Y0156104D01*
X0053196Y0161500D02*
X0056265Y0161500D01*
X0057800Y0163035D01*
X0056265Y0164570D01*
X0053196Y0164570D01*
X0055498Y0166104D02*
X0055498Y0169174D01*
X0053963Y0167639D02*
X0057033Y0167639D01*
D13*
X0095972Y0174859D02*
X0095972Y0155056D01*
X0155028Y0155056D01*
X0155028Y0154524D01*
X0155028Y0152201D01*
X0155028Y0148245D01*
X0095972Y0148245D01*
X0095972Y0155056D01*
X0100800Y0144714D02*
X0100800Y0141511D01*
X0102935Y0142579D01*
X0104003Y0142579D01*
X0105070Y0141511D01*
X0105070Y0139376D01*
X0104003Y0138308D01*
X0101868Y0138308D01*
X0100800Y0139376D01*
X0107245Y0140443D02*
X0109381Y0138308D01*
X0111516Y0140443D01*
X0111516Y0144714D01*
X0107245Y0144714D02*
X0107245Y0140443D01*
X0105070Y0144714D02*
X0100800Y0144714D01*
X0118300Y0143646D02*
X0118300Y0139376D01*
X0119368Y0138308D01*
X0121503Y0138308D01*
X0122570Y0139376D01*
X0122570Y0143646D01*
X0121503Y0144714D01*
X0119368Y0144714D01*
X0118300Y0143646D01*
X0124745Y0144714D02*
X0124745Y0139376D01*
X0125813Y0138308D01*
X0127948Y0138308D01*
X0129016Y0139376D01*
X0129016Y0144714D01*
X0131191Y0144714D02*
X0135461Y0144714D01*
X0133326Y0144714D02*
X0133326Y0138308D01*
X0140800Y0139376D02*
X0141868Y0138308D01*
X0144003Y0138308D01*
X0145070Y0139376D01*
X0145070Y0141511D01*
X0142935Y0141511D01*
X0140800Y0143646D02*
X0140800Y0139376D01*
X0140800Y0143646D02*
X0141868Y0144714D01*
X0144003Y0144714D01*
X0145070Y0143646D01*
X0147245Y0144714D02*
X0151516Y0138308D01*
X0151516Y0144714D01*
X0153691Y0144714D02*
X0156894Y0144714D01*
X0157961Y0143646D01*
X0157961Y0139376D01*
X0156894Y0138308D01*
X0153691Y0138308D01*
X0153691Y0144714D01*
X0147245Y0144714D02*
X0147245Y0138308D01*
X0155028Y0155056D02*
X0155028Y0174859D01*
X0095972Y0174859D01*
X0095972Y0177772D01*
X0155028Y0177772D01*
X0155028Y0174859D01*
X0078000Y0090248D02*
X0078000Y0087019D01*
X0073000Y0087019D02*
X0073000Y0090248D01*
X0058000Y0091433D02*
X0058000Y0085833D01*
X0053000Y0085833D02*
X0053000Y0091433D01*
X0048000Y0091433D02*
X0048000Y0085833D01*
X0043000Y0085833D02*
X0043000Y0091433D01*
X0038000Y0091433D02*
X0038000Y0085833D01*
X0033000Y0085833D02*
X0033000Y0091433D01*
X0024250Y0059558D02*
X0024250Y0053958D01*
X0019250Y0053958D02*
X0019250Y0059558D01*
X0053263Y0053348D02*
X0056466Y0050145D01*
X0056466Y0054415D01*
X0059669Y0053348D02*
X0053263Y0053348D01*
X0053263Y0047970D02*
X0058601Y0047970D01*
X0059669Y0046902D01*
X0059669Y0044767D01*
X0058601Y0043699D01*
X0053263Y0043699D01*
X0054331Y0041524D02*
X0053263Y0040457D01*
X0053263Y0038321D01*
X0054331Y0037254D01*
X0054331Y0035079D02*
X0053263Y0034011D01*
X0053263Y0031876D01*
X0054331Y0030808D01*
X0056466Y0032943D02*
X0056466Y0034011D01*
X0057534Y0035079D01*
X0058601Y0035079D01*
X0059669Y0034011D01*
X0059669Y0031876D01*
X0058601Y0030808D01*
X0056466Y0034011D02*
X0055399Y0035079D01*
X0054331Y0035079D01*
X0059669Y0037254D02*
X0055399Y0041524D01*
X0054331Y0041524D01*
X0059669Y0041524D02*
X0059669Y0037254D01*
X0088000Y0040208D02*
X0088000Y0045808D01*
X0093000Y0045808D02*
X0093000Y0040208D01*
X0093000Y0025808D02*
X0093000Y0020208D01*
X0088000Y0020208D02*
X0088000Y0025808D01*
X0158886Y0015508D02*
X0162114Y0015508D01*
X0162114Y0010508D02*
X0158886Y0010508D01*
D14*
X0115500Y0030056D03*
X0115500Y0035961D03*
X0115500Y0046306D03*
X0115500Y0052211D03*
X0021750Y0034711D03*
X0021750Y0028806D03*
D15*
X0016870Y0029214D02*
X0016870Y0027980D01*
X0016252Y0027363D01*
X0013784Y0029832D01*
X0016252Y0029832D01*
X0016870Y0029214D01*
X0016252Y0031046D02*
X0013784Y0031046D01*
X0013167Y0031663D01*
X0013167Y0032897D01*
X0013784Y0033515D01*
X0016252Y0031046D01*
X0016870Y0031663D01*
X0016870Y0032897D01*
X0016252Y0033515D01*
X0013784Y0033515D01*
X0014401Y0034729D02*
X0014401Y0036581D01*
X0015018Y0037198D01*
X0016870Y0037198D01*
X0016870Y0038412D02*
X0013167Y0038412D01*
X0013167Y0040881D01*
X0015018Y0039647D02*
X0015018Y0038412D01*
X0014401Y0034729D02*
X0016870Y0034729D01*
X0013784Y0029832D02*
X0013167Y0029214D01*
X0013167Y0027980D01*
X0013784Y0027363D01*
X0016252Y0027363D01*
X0016870Y0026148D02*
X0016870Y0023680D01*
X0016870Y0024914D02*
X0013167Y0024914D01*
X0014401Y0023680D01*
X0036713Y0008147D02*
X0037947Y0009381D01*
X0037947Y0005678D01*
X0036713Y0005678D02*
X0039182Y0005678D01*
X0040396Y0006295D02*
X0040396Y0008764D01*
X0041013Y0009381D01*
X0042248Y0009381D01*
X0042865Y0008764D01*
X0040396Y0006295D01*
X0041013Y0005678D01*
X0042248Y0005678D01*
X0042865Y0006295D01*
X0042865Y0008764D01*
X0044079Y0008764D02*
X0044696Y0009381D01*
X0045931Y0009381D01*
X0046548Y0008764D01*
X0044079Y0006295D01*
X0044696Y0005678D01*
X0045931Y0005678D01*
X0046548Y0006295D01*
X0046548Y0008764D01*
X0047762Y0008147D02*
X0049614Y0008147D01*
X0050231Y0007530D01*
X0050231Y0005678D01*
X0051446Y0005678D02*
X0051446Y0009381D01*
X0053914Y0009381D01*
X0052680Y0007530D02*
X0051446Y0007530D01*
X0047762Y0008147D02*
X0047762Y0005678D01*
X0044079Y0006295D02*
X0044079Y0008764D01*
X0118167Y0022980D02*
X0118784Y0022363D01*
X0118167Y0022980D02*
X0118167Y0024214D01*
X0118784Y0024832D01*
X0119401Y0024832D01*
X0121870Y0022363D01*
X0121870Y0024832D01*
X0121870Y0026046D02*
X0119401Y0028515D01*
X0118784Y0028515D01*
X0118167Y0027897D01*
X0118167Y0026663D01*
X0118784Y0026046D01*
X0121870Y0026046D02*
X0121870Y0028515D01*
X0121870Y0029729D02*
X0121870Y0031581D01*
X0121252Y0032198D01*
X0120018Y0032198D01*
X0119401Y0031581D01*
X0119401Y0029729D01*
X0123104Y0029729D01*
X0121870Y0033412D02*
X0118167Y0033412D01*
X0118167Y0035881D01*
X0120018Y0034647D02*
X0120018Y0033412D01*
X0119744Y0045471D02*
X0119127Y0046089D01*
X0119127Y0047323D01*
X0119744Y0047940D01*
X0120362Y0047940D01*
X0122830Y0045471D01*
X0122830Y0047940D01*
X0122830Y0049154D02*
X0120362Y0051623D01*
X0119744Y0051623D01*
X0119127Y0051006D01*
X0119127Y0049772D01*
X0119744Y0049154D01*
X0122830Y0049154D02*
X0122830Y0051623D01*
X0122830Y0052838D02*
X0122830Y0054689D01*
X0122213Y0055306D01*
X0120979Y0055306D01*
X0120362Y0054689D01*
X0120362Y0052838D01*
X0124065Y0052838D01*
X0122830Y0056521D02*
X0119127Y0056521D01*
X0119127Y0058990D01*
X0120979Y0057755D02*
X0120979Y0056521D01*
X0086326Y0095401D02*
X0086326Y0097869D01*
X0085092Y0096635D02*
X0087561Y0096635D01*
X0068186Y0096635D02*
X0065717Y0096635D01*
X0066951Y0097869D02*
X0066951Y0095401D01*
X0104043Y0153363D02*
X0104045Y0153447D01*
X0104051Y0153530D01*
X0104061Y0153613D01*
X0104075Y0153696D01*
X0104092Y0153778D01*
X0104114Y0153859D01*
X0104139Y0153938D01*
X0104168Y0154017D01*
X0104201Y0154094D01*
X0104237Y0154169D01*
X0104277Y0154243D01*
X0104320Y0154315D01*
X0104367Y0154384D01*
X0104417Y0154451D01*
X0104470Y0154516D01*
X0104526Y0154578D01*
X0104584Y0154638D01*
X0104646Y0154695D01*
X0104710Y0154748D01*
X0104777Y0154799D01*
X0104846Y0154846D01*
X0104917Y0154891D01*
X0104990Y0154931D01*
X0105065Y0154968D01*
X0105142Y0155002D01*
X0105220Y0155032D01*
X0105299Y0155058D01*
X0105380Y0155081D01*
X0105462Y0155099D01*
X0105544Y0155114D01*
X0105627Y0155125D01*
X0105710Y0155132D01*
X0105794Y0155135D01*
X0105878Y0155134D01*
X0105961Y0155129D01*
X0106045Y0155120D01*
X0106127Y0155107D01*
X0106209Y0155091D01*
X0106290Y0155070D01*
X0106371Y0155046D01*
X0106449Y0155018D01*
X0106527Y0154986D01*
X0106603Y0154950D01*
X0106677Y0154911D01*
X0106749Y0154869D01*
X0106819Y0154823D01*
X0106887Y0154774D01*
X0106952Y0154722D01*
X0107015Y0154667D01*
X0107075Y0154609D01*
X0107133Y0154548D01*
X0107187Y0154484D01*
X0107239Y0154418D01*
X0107287Y0154350D01*
X0107332Y0154279D01*
X0107373Y0154206D01*
X0107412Y0154132D01*
X0107446Y0154056D01*
X0107477Y0153978D01*
X0107504Y0153899D01*
X0107528Y0153818D01*
X0107547Y0153737D01*
X0107563Y0153655D01*
X0107575Y0153572D01*
X0107583Y0153488D01*
X0107587Y0153405D01*
X0107587Y0153321D01*
X0107583Y0153238D01*
X0107575Y0153154D01*
X0107563Y0153071D01*
X0107547Y0152989D01*
X0107528Y0152908D01*
X0107504Y0152827D01*
X0107477Y0152748D01*
X0107446Y0152670D01*
X0107412Y0152594D01*
X0107373Y0152520D01*
X0107332Y0152447D01*
X0107287Y0152376D01*
X0107239Y0152308D01*
X0107187Y0152242D01*
X0107133Y0152178D01*
X0107075Y0152117D01*
X0107015Y0152059D01*
X0106952Y0152004D01*
X0106887Y0151952D01*
X0106819Y0151903D01*
X0106749Y0151857D01*
X0106677Y0151815D01*
X0106603Y0151776D01*
X0106527Y0151740D01*
X0106449Y0151708D01*
X0106371Y0151680D01*
X0106290Y0151656D01*
X0106209Y0151635D01*
X0106127Y0151619D01*
X0106045Y0151606D01*
X0105961Y0151597D01*
X0105878Y0151592D01*
X0105794Y0151591D01*
X0105710Y0151594D01*
X0105627Y0151601D01*
X0105544Y0151612D01*
X0105462Y0151627D01*
X0105380Y0151645D01*
X0105299Y0151668D01*
X0105220Y0151694D01*
X0105142Y0151724D01*
X0105065Y0151758D01*
X0104990Y0151795D01*
X0104917Y0151835D01*
X0104846Y0151880D01*
X0104777Y0151927D01*
X0104710Y0151978D01*
X0104646Y0152031D01*
X0104584Y0152088D01*
X0104526Y0152148D01*
X0104470Y0152210D01*
X0104417Y0152275D01*
X0104367Y0152342D01*
X0104320Y0152411D01*
X0104277Y0152483D01*
X0104237Y0152557D01*
X0104201Y0152632D01*
X0104168Y0152709D01*
X0104139Y0152788D01*
X0104114Y0152867D01*
X0104092Y0152948D01*
X0104075Y0153030D01*
X0104061Y0153113D01*
X0104051Y0153196D01*
X0104045Y0153279D01*
X0104043Y0153363D01*
X0103256Y0158382D02*
X0106177Y0163434D01*
X0111228Y0160516D01*
X0112213Y0162221D02*
X0107161Y0165142D01*
X0110079Y0170193D01*
X0108374Y0171178D02*
X0105453Y0166126D01*
X0100402Y0169044D01*
X0099417Y0167339D02*
X0104469Y0164418D01*
X0101551Y0159367D01*
X0098925Y0164780D02*
X0098927Y0164949D01*
X0098933Y0165118D01*
X0098944Y0165287D01*
X0098958Y0165455D01*
X0098977Y0165623D01*
X0099000Y0165791D01*
X0099026Y0165958D01*
X0099057Y0166124D01*
X0099092Y0166290D01*
X0099131Y0166454D01*
X0099175Y0166618D01*
X0099222Y0166780D01*
X0099273Y0166941D01*
X0099328Y0167101D01*
X0099387Y0167260D01*
X0099449Y0167417D01*
X0099516Y0167572D01*
X0099587Y0167726D01*
X0099661Y0167878D01*
X0099739Y0168028D01*
X0099820Y0168176D01*
X0099905Y0168322D01*
X0099994Y0168466D01*
X0100086Y0168608D01*
X0100182Y0168747D01*
X0100281Y0168884D01*
X0100383Y0169019D01*
X0100489Y0169151D01*
X0100598Y0169280D01*
X0100710Y0169407D01*
X0100825Y0169531D01*
X0100943Y0169652D01*
X0101064Y0169770D01*
X0101188Y0169885D01*
X0101315Y0169997D01*
X0101444Y0170106D01*
X0101576Y0170212D01*
X0101711Y0170314D01*
X0101848Y0170413D01*
X0101987Y0170509D01*
X0102129Y0170601D01*
X0102273Y0170690D01*
X0102419Y0170775D01*
X0102567Y0170856D01*
X0102717Y0170934D01*
X0102869Y0171008D01*
X0103023Y0171079D01*
X0103178Y0171146D01*
X0103335Y0171208D01*
X0103494Y0171267D01*
X0103654Y0171322D01*
X0103815Y0171373D01*
X0103977Y0171420D01*
X0104141Y0171464D01*
X0104305Y0171503D01*
X0104471Y0171538D01*
X0104637Y0171569D01*
X0104804Y0171595D01*
X0104972Y0171618D01*
X0105140Y0171637D01*
X0105308Y0171651D01*
X0105477Y0171662D01*
X0105646Y0171668D01*
X0105815Y0171670D01*
X0105984Y0171668D01*
X0106153Y0171662D01*
X0106322Y0171651D01*
X0106490Y0171637D01*
X0106658Y0171618D01*
X0106826Y0171595D01*
X0106993Y0171569D01*
X0107159Y0171538D01*
X0107325Y0171503D01*
X0107489Y0171464D01*
X0107653Y0171420D01*
X0107815Y0171373D01*
X0107976Y0171322D01*
X0108136Y0171267D01*
X0108295Y0171208D01*
X0108452Y0171146D01*
X0108607Y0171079D01*
X0108761Y0171008D01*
X0108913Y0170934D01*
X0109063Y0170856D01*
X0109211Y0170775D01*
X0109357Y0170690D01*
X0109501Y0170601D01*
X0109643Y0170509D01*
X0109782Y0170413D01*
X0109919Y0170314D01*
X0110054Y0170212D01*
X0110186Y0170106D01*
X0110315Y0169997D01*
X0110442Y0169885D01*
X0110566Y0169770D01*
X0110687Y0169652D01*
X0110805Y0169531D01*
X0110920Y0169407D01*
X0111032Y0169280D01*
X0111141Y0169151D01*
X0111247Y0169019D01*
X0111349Y0168884D01*
X0111448Y0168747D01*
X0111544Y0168608D01*
X0111636Y0168466D01*
X0111725Y0168322D01*
X0111810Y0168176D01*
X0111891Y0168028D01*
X0111969Y0167878D01*
X0112043Y0167726D01*
X0112114Y0167572D01*
X0112181Y0167417D01*
X0112243Y0167260D01*
X0112302Y0167101D01*
X0112357Y0166941D01*
X0112408Y0166780D01*
X0112455Y0166618D01*
X0112499Y0166454D01*
X0112538Y0166290D01*
X0112573Y0166124D01*
X0112604Y0165958D01*
X0112630Y0165791D01*
X0112653Y0165623D01*
X0112672Y0165455D01*
X0112686Y0165287D01*
X0112697Y0165118D01*
X0112703Y0164949D01*
X0112705Y0164780D01*
X0112703Y0164611D01*
X0112697Y0164442D01*
X0112686Y0164273D01*
X0112672Y0164105D01*
X0112653Y0163937D01*
X0112630Y0163769D01*
X0112604Y0163602D01*
X0112573Y0163436D01*
X0112538Y0163270D01*
X0112499Y0163106D01*
X0112455Y0162942D01*
X0112408Y0162780D01*
X0112357Y0162619D01*
X0112302Y0162459D01*
X0112243Y0162300D01*
X0112181Y0162143D01*
X0112114Y0161988D01*
X0112043Y0161834D01*
X0111969Y0161682D01*
X0111891Y0161532D01*
X0111810Y0161384D01*
X0111725Y0161238D01*
X0111636Y0161094D01*
X0111544Y0160952D01*
X0111448Y0160813D01*
X0111349Y0160676D01*
X0111247Y0160541D01*
X0111141Y0160409D01*
X0111032Y0160280D01*
X0110920Y0160153D01*
X0110805Y0160029D01*
X0110687Y0159908D01*
X0110566Y0159790D01*
X0110442Y0159675D01*
X0110315Y0159563D01*
X0110186Y0159454D01*
X0110054Y0159348D01*
X0109919Y0159246D01*
X0109782Y0159147D01*
X0109643Y0159051D01*
X0109501Y0158959D01*
X0109357Y0158870D01*
X0109211Y0158785D01*
X0109063Y0158704D01*
X0108913Y0158626D01*
X0108761Y0158552D01*
X0108607Y0158481D01*
X0108452Y0158414D01*
X0108295Y0158352D01*
X0108136Y0158293D01*
X0107976Y0158238D01*
X0107815Y0158187D01*
X0107653Y0158140D01*
X0107489Y0158096D01*
X0107325Y0158057D01*
X0107159Y0158022D01*
X0106993Y0157991D01*
X0106826Y0157965D01*
X0106658Y0157942D01*
X0106490Y0157923D01*
X0106322Y0157909D01*
X0106153Y0157898D01*
X0105984Y0157892D01*
X0105815Y0157890D01*
X0105646Y0157892D01*
X0105477Y0157898D01*
X0105308Y0157909D01*
X0105140Y0157923D01*
X0104972Y0157942D01*
X0104804Y0157965D01*
X0104637Y0157991D01*
X0104471Y0158022D01*
X0104305Y0158057D01*
X0104141Y0158096D01*
X0103977Y0158140D01*
X0103815Y0158187D01*
X0103654Y0158238D01*
X0103494Y0158293D01*
X0103335Y0158352D01*
X0103178Y0158414D01*
X0103023Y0158481D01*
X0102869Y0158552D01*
X0102717Y0158626D01*
X0102567Y0158704D01*
X0102419Y0158785D01*
X0102273Y0158870D01*
X0102129Y0158959D01*
X0101987Y0159051D01*
X0101848Y0159147D01*
X0101711Y0159246D01*
X0101576Y0159348D01*
X0101444Y0159454D01*
X0101315Y0159563D01*
X0101188Y0159675D01*
X0101064Y0159790D01*
X0100943Y0159908D01*
X0100825Y0160029D01*
X0100710Y0160153D01*
X0100598Y0160280D01*
X0100489Y0160409D01*
X0100383Y0160541D01*
X0100281Y0160676D01*
X0100182Y0160813D01*
X0100086Y0160952D01*
X0099994Y0161094D01*
X0099905Y0161238D01*
X0099820Y0161384D01*
X0099739Y0161532D01*
X0099661Y0161682D01*
X0099587Y0161834D01*
X0099516Y0161988D01*
X0099449Y0162143D01*
X0099387Y0162300D01*
X0099328Y0162459D01*
X0099273Y0162619D01*
X0099222Y0162780D01*
X0099175Y0162942D01*
X0099131Y0163106D01*
X0099092Y0163270D01*
X0099057Y0163436D01*
X0099026Y0163602D01*
X0099000Y0163769D01*
X0098977Y0163937D01*
X0098958Y0164105D01*
X0098944Y0164273D01*
X0098933Y0164442D01*
X0098927Y0164611D01*
X0098925Y0164780D01*
X0119102Y0167339D02*
X0124154Y0164418D01*
X0121236Y0159367D01*
X0122941Y0158382D02*
X0125862Y0163434D01*
X0130913Y0160516D01*
X0131898Y0162221D02*
X0126846Y0165142D01*
X0129764Y0170193D01*
X0128059Y0171178D02*
X0125138Y0166126D01*
X0120087Y0169044D01*
X0118610Y0164780D02*
X0118612Y0164949D01*
X0118618Y0165118D01*
X0118629Y0165287D01*
X0118643Y0165455D01*
X0118662Y0165623D01*
X0118685Y0165791D01*
X0118711Y0165958D01*
X0118742Y0166124D01*
X0118777Y0166290D01*
X0118816Y0166454D01*
X0118860Y0166618D01*
X0118907Y0166780D01*
X0118958Y0166941D01*
X0119013Y0167101D01*
X0119072Y0167260D01*
X0119134Y0167417D01*
X0119201Y0167572D01*
X0119272Y0167726D01*
X0119346Y0167878D01*
X0119424Y0168028D01*
X0119505Y0168176D01*
X0119590Y0168322D01*
X0119679Y0168466D01*
X0119771Y0168608D01*
X0119867Y0168747D01*
X0119966Y0168884D01*
X0120068Y0169019D01*
X0120174Y0169151D01*
X0120283Y0169280D01*
X0120395Y0169407D01*
X0120510Y0169531D01*
X0120628Y0169652D01*
X0120749Y0169770D01*
X0120873Y0169885D01*
X0121000Y0169997D01*
X0121129Y0170106D01*
X0121261Y0170212D01*
X0121396Y0170314D01*
X0121533Y0170413D01*
X0121672Y0170509D01*
X0121814Y0170601D01*
X0121958Y0170690D01*
X0122104Y0170775D01*
X0122252Y0170856D01*
X0122402Y0170934D01*
X0122554Y0171008D01*
X0122708Y0171079D01*
X0122863Y0171146D01*
X0123020Y0171208D01*
X0123179Y0171267D01*
X0123339Y0171322D01*
X0123500Y0171373D01*
X0123662Y0171420D01*
X0123826Y0171464D01*
X0123990Y0171503D01*
X0124156Y0171538D01*
X0124322Y0171569D01*
X0124489Y0171595D01*
X0124657Y0171618D01*
X0124825Y0171637D01*
X0124993Y0171651D01*
X0125162Y0171662D01*
X0125331Y0171668D01*
X0125500Y0171670D01*
X0125669Y0171668D01*
X0125838Y0171662D01*
X0126007Y0171651D01*
X0126175Y0171637D01*
X0126343Y0171618D01*
X0126511Y0171595D01*
X0126678Y0171569D01*
X0126844Y0171538D01*
X0127010Y0171503D01*
X0127174Y0171464D01*
X0127338Y0171420D01*
X0127500Y0171373D01*
X0127661Y0171322D01*
X0127821Y0171267D01*
X0127980Y0171208D01*
X0128137Y0171146D01*
X0128292Y0171079D01*
X0128446Y0171008D01*
X0128598Y0170934D01*
X0128748Y0170856D01*
X0128896Y0170775D01*
X0129042Y0170690D01*
X0129186Y0170601D01*
X0129328Y0170509D01*
X0129467Y0170413D01*
X0129604Y0170314D01*
X0129739Y0170212D01*
X0129871Y0170106D01*
X0130000Y0169997D01*
X0130127Y0169885D01*
X0130251Y0169770D01*
X0130372Y0169652D01*
X0130490Y0169531D01*
X0130605Y0169407D01*
X0130717Y0169280D01*
X0130826Y0169151D01*
X0130932Y0169019D01*
X0131034Y0168884D01*
X0131133Y0168747D01*
X0131229Y0168608D01*
X0131321Y0168466D01*
X0131410Y0168322D01*
X0131495Y0168176D01*
X0131576Y0168028D01*
X0131654Y0167878D01*
X0131728Y0167726D01*
X0131799Y0167572D01*
X0131866Y0167417D01*
X0131928Y0167260D01*
X0131987Y0167101D01*
X0132042Y0166941D01*
X0132093Y0166780D01*
X0132140Y0166618D01*
X0132184Y0166454D01*
X0132223Y0166290D01*
X0132258Y0166124D01*
X0132289Y0165958D01*
X0132315Y0165791D01*
X0132338Y0165623D01*
X0132357Y0165455D01*
X0132371Y0165287D01*
X0132382Y0165118D01*
X0132388Y0164949D01*
X0132390Y0164780D01*
X0132388Y0164611D01*
X0132382Y0164442D01*
X0132371Y0164273D01*
X0132357Y0164105D01*
X0132338Y0163937D01*
X0132315Y0163769D01*
X0132289Y0163602D01*
X0132258Y0163436D01*
X0132223Y0163270D01*
X0132184Y0163106D01*
X0132140Y0162942D01*
X0132093Y0162780D01*
X0132042Y0162619D01*
X0131987Y0162459D01*
X0131928Y0162300D01*
X0131866Y0162143D01*
X0131799Y0161988D01*
X0131728Y0161834D01*
X0131654Y0161682D01*
X0131576Y0161532D01*
X0131495Y0161384D01*
X0131410Y0161238D01*
X0131321Y0161094D01*
X0131229Y0160952D01*
X0131133Y0160813D01*
X0131034Y0160676D01*
X0130932Y0160541D01*
X0130826Y0160409D01*
X0130717Y0160280D01*
X0130605Y0160153D01*
X0130490Y0160029D01*
X0130372Y0159908D01*
X0130251Y0159790D01*
X0130127Y0159675D01*
X0130000Y0159563D01*
X0129871Y0159454D01*
X0129739Y0159348D01*
X0129604Y0159246D01*
X0129467Y0159147D01*
X0129328Y0159051D01*
X0129186Y0158959D01*
X0129042Y0158870D01*
X0128896Y0158785D01*
X0128748Y0158704D01*
X0128598Y0158626D01*
X0128446Y0158552D01*
X0128292Y0158481D01*
X0128137Y0158414D01*
X0127980Y0158352D01*
X0127821Y0158293D01*
X0127661Y0158238D01*
X0127500Y0158187D01*
X0127338Y0158140D01*
X0127174Y0158096D01*
X0127010Y0158057D01*
X0126844Y0158022D01*
X0126678Y0157991D01*
X0126511Y0157965D01*
X0126343Y0157942D01*
X0126175Y0157923D01*
X0126007Y0157909D01*
X0125838Y0157898D01*
X0125669Y0157892D01*
X0125500Y0157890D01*
X0125331Y0157892D01*
X0125162Y0157898D01*
X0124993Y0157909D01*
X0124825Y0157923D01*
X0124657Y0157942D01*
X0124489Y0157965D01*
X0124322Y0157991D01*
X0124156Y0158022D01*
X0123990Y0158057D01*
X0123826Y0158096D01*
X0123662Y0158140D01*
X0123500Y0158187D01*
X0123339Y0158238D01*
X0123179Y0158293D01*
X0123020Y0158352D01*
X0122863Y0158414D01*
X0122708Y0158481D01*
X0122554Y0158552D01*
X0122402Y0158626D01*
X0122252Y0158704D01*
X0122104Y0158785D01*
X0121958Y0158870D01*
X0121814Y0158959D01*
X0121672Y0159051D01*
X0121533Y0159147D01*
X0121396Y0159246D01*
X0121261Y0159348D01*
X0121129Y0159454D01*
X0121000Y0159563D01*
X0120873Y0159675D01*
X0120749Y0159790D01*
X0120628Y0159908D01*
X0120510Y0160029D01*
X0120395Y0160153D01*
X0120283Y0160280D01*
X0120174Y0160409D01*
X0120068Y0160541D01*
X0119966Y0160676D01*
X0119867Y0160813D01*
X0119771Y0160952D01*
X0119679Y0161094D01*
X0119590Y0161238D01*
X0119505Y0161384D01*
X0119424Y0161532D01*
X0119346Y0161682D01*
X0119272Y0161834D01*
X0119201Y0161988D01*
X0119134Y0162143D01*
X0119072Y0162300D01*
X0119013Y0162459D01*
X0118958Y0162619D01*
X0118907Y0162780D01*
X0118860Y0162942D01*
X0118816Y0163106D01*
X0118777Y0163270D01*
X0118742Y0163436D01*
X0118711Y0163602D01*
X0118685Y0163769D01*
X0118662Y0163937D01*
X0118643Y0164105D01*
X0118629Y0164273D01*
X0118618Y0164442D01*
X0118612Y0164611D01*
X0118610Y0164780D01*
X0123728Y0153363D02*
X0123730Y0153447D01*
X0123736Y0153530D01*
X0123746Y0153613D01*
X0123760Y0153696D01*
X0123777Y0153778D01*
X0123799Y0153859D01*
X0123824Y0153938D01*
X0123853Y0154017D01*
X0123886Y0154094D01*
X0123922Y0154169D01*
X0123962Y0154243D01*
X0124005Y0154315D01*
X0124052Y0154384D01*
X0124102Y0154451D01*
X0124155Y0154516D01*
X0124211Y0154578D01*
X0124269Y0154638D01*
X0124331Y0154695D01*
X0124395Y0154748D01*
X0124462Y0154799D01*
X0124531Y0154846D01*
X0124602Y0154891D01*
X0124675Y0154931D01*
X0124750Y0154968D01*
X0124827Y0155002D01*
X0124905Y0155032D01*
X0124984Y0155058D01*
X0125065Y0155081D01*
X0125147Y0155099D01*
X0125229Y0155114D01*
X0125312Y0155125D01*
X0125395Y0155132D01*
X0125479Y0155135D01*
X0125563Y0155134D01*
X0125646Y0155129D01*
X0125730Y0155120D01*
X0125812Y0155107D01*
X0125894Y0155091D01*
X0125975Y0155070D01*
X0126056Y0155046D01*
X0126134Y0155018D01*
X0126212Y0154986D01*
X0126288Y0154950D01*
X0126362Y0154911D01*
X0126434Y0154869D01*
X0126504Y0154823D01*
X0126572Y0154774D01*
X0126637Y0154722D01*
X0126700Y0154667D01*
X0126760Y0154609D01*
X0126818Y0154548D01*
X0126872Y0154484D01*
X0126924Y0154418D01*
X0126972Y0154350D01*
X0127017Y0154279D01*
X0127058Y0154206D01*
X0127097Y0154132D01*
X0127131Y0154056D01*
X0127162Y0153978D01*
X0127189Y0153899D01*
X0127213Y0153818D01*
X0127232Y0153737D01*
X0127248Y0153655D01*
X0127260Y0153572D01*
X0127268Y0153488D01*
X0127272Y0153405D01*
X0127272Y0153321D01*
X0127268Y0153238D01*
X0127260Y0153154D01*
X0127248Y0153071D01*
X0127232Y0152989D01*
X0127213Y0152908D01*
X0127189Y0152827D01*
X0127162Y0152748D01*
X0127131Y0152670D01*
X0127097Y0152594D01*
X0127058Y0152520D01*
X0127017Y0152447D01*
X0126972Y0152376D01*
X0126924Y0152308D01*
X0126872Y0152242D01*
X0126818Y0152178D01*
X0126760Y0152117D01*
X0126700Y0152059D01*
X0126637Y0152004D01*
X0126572Y0151952D01*
X0126504Y0151903D01*
X0126434Y0151857D01*
X0126362Y0151815D01*
X0126288Y0151776D01*
X0126212Y0151740D01*
X0126134Y0151708D01*
X0126056Y0151680D01*
X0125975Y0151656D01*
X0125894Y0151635D01*
X0125812Y0151619D01*
X0125730Y0151606D01*
X0125646Y0151597D01*
X0125563Y0151592D01*
X0125479Y0151591D01*
X0125395Y0151594D01*
X0125312Y0151601D01*
X0125229Y0151612D01*
X0125147Y0151627D01*
X0125065Y0151645D01*
X0124984Y0151668D01*
X0124905Y0151694D01*
X0124827Y0151724D01*
X0124750Y0151758D01*
X0124675Y0151795D01*
X0124602Y0151835D01*
X0124531Y0151880D01*
X0124462Y0151927D01*
X0124395Y0151978D01*
X0124331Y0152031D01*
X0124269Y0152088D01*
X0124211Y0152148D01*
X0124155Y0152210D01*
X0124102Y0152275D01*
X0124052Y0152342D01*
X0124005Y0152411D01*
X0123962Y0152483D01*
X0123922Y0152557D01*
X0123886Y0152632D01*
X0123853Y0152709D01*
X0123824Y0152788D01*
X0123799Y0152867D01*
X0123777Y0152948D01*
X0123760Y0153030D01*
X0123746Y0153113D01*
X0123736Y0153196D01*
X0123730Y0153279D01*
X0123728Y0153363D01*
X0140921Y0159367D02*
X0143839Y0164418D01*
X0138787Y0167339D01*
X0139772Y0169044D02*
X0144823Y0166126D01*
X0147744Y0171178D01*
X0149449Y0170193D02*
X0146531Y0165142D01*
X0151583Y0162221D01*
X0150598Y0160516D02*
X0145547Y0163434D01*
X0142626Y0158382D01*
X0143413Y0153363D02*
X0143415Y0153447D01*
X0143421Y0153530D01*
X0143431Y0153613D01*
X0143445Y0153696D01*
X0143462Y0153778D01*
X0143484Y0153859D01*
X0143509Y0153938D01*
X0143538Y0154017D01*
X0143571Y0154094D01*
X0143607Y0154169D01*
X0143647Y0154243D01*
X0143690Y0154315D01*
X0143737Y0154384D01*
X0143787Y0154451D01*
X0143840Y0154516D01*
X0143896Y0154578D01*
X0143954Y0154638D01*
X0144016Y0154695D01*
X0144080Y0154748D01*
X0144147Y0154799D01*
X0144216Y0154846D01*
X0144287Y0154891D01*
X0144360Y0154931D01*
X0144435Y0154968D01*
X0144512Y0155002D01*
X0144590Y0155032D01*
X0144669Y0155058D01*
X0144750Y0155081D01*
X0144832Y0155099D01*
X0144914Y0155114D01*
X0144997Y0155125D01*
X0145080Y0155132D01*
X0145164Y0155135D01*
X0145248Y0155134D01*
X0145331Y0155129D01*
X0145415Y0155120D01*
X0145497Y0155107D01*
X0145579Y0155091D01*
X0145660Y0155070D01*
X0145741Y0155046D01*
X0145819Y0155018D01*
X0145897Y0154986D01*
X0145973Y0154950D01*
X0146047Y0154911D01*
X0146119Y0154869D01*
X0146189Y0154823D01*
X0146257Y0154774D01*
X0146322Y0154722D01*
X0146385Y0154667D01*
X0146445Y0154609D01*
X0146503Y0154548D01*
X0146557Y0154484D01*
X0146609Y0154418D01*
X0146657Y0154350D01*
X0146702Y0154279D01*
X0146743Y0154206D01*
X0146782Y0154132D01*
X0146816Y0154056D01*
X0146847Y0153978D01*
X0146874Y0153899D01*
X0146898Y0153818D01*
X0146917Y0153737D01*
X0146933Y0153655D01*
X0146945Y0153572D01*
X0146953Y0153488D01*
X0146957Y0153405D01*
X0146957Y0153321D01*
X0146953Y0153238D01*
X0146945Y0153154D01*
X0146933Y0153071D01*
X0146917Y0152989D01*
X0146898Y0152908D01*
X0146874Y0152827D01*
X0146847Y0152748D01*
X0146816Y0152670D01*
X0146782Y0152594D01*
X0146743Y0152520D01*
X0146702Y0152447D01*
X0146657Y0152376D01*
X0146609Y0152308D01*
X0146557Y0152242D01*
X0146503Y0152178D01*
X0146445Y0152117D01*
X0146385Y0152059D01*
X0146322Y0152004D01*
X0146257Y0151952D01*
X0146189Y0151903D01*
X0146119Y0151857D01*
X0146047Y0151815D01*
X0145973Y0151776D01*
X0145897Y0151740D01*
X0145819Y0151708D01*
X0145741Y0151680D01*
X0145660Y0151656D01*
X0145579Y0151635D01*
X0145497Y0151619D01*
X0145415Y0151606D01*
X0145331Y0151597D01*
X0145248Y0151592D01*
X0145164Y0151591D01*
X0145080Y0151594D01*
X0144997Y0151601D01*
X0144914Y0151612D01*
X0144832Y0151627D01*
X0144750Y0151645D01*
X0144669Y0151668D01*
X0144590Y0151694D01*
X0144512Y0151724D01*
X0144435Y0151758D01*
X0144360Y0151795D01*
X0144287Y0151835D01*
X0144216Y0151880D01*
X0144147Y0151927D01*
X0144080Y0151978D01*
X0144016Y0152031D01*
X0143954Y0152088D01*
X0143896Y0152148D01*
X0143840Y0152210D01*
X0143787Y0152275D01*
X0143737Y0152342D01*
X0143690Y0152411D01*
X0143647Y0152483D01*
X0143607Y0152557D01*
X0143571Y0152632D01*
X0143538Y0152709D01*
X0143509Y0152788D01*
X0143484Y0152867D01*
X0143462Y0152948D01*
X0143445Y0153030D01*
X0143431Y0153113D01*
X0143421Y0153196D01*
X0143415Y0153279D01*
X0143413Y0153363D01*
X0155028Y0154524D02*
X0157311Y0155134D01*
X0157311Y0151591D01*
X0155028Y0152201D01*
X0138295Y0164780D02*
X0138297Y0164949D01*
X0138303Y0165118D01*
X0138314Y0165287D01*
X0138328Y0165455D01*
X0138347Y0165623D01*
X0138370Y0165791D01*
X0138396Y0165958D01*
X0138427Y0166124D01*
X0138462Y0166290D01*
X0138501Y0166454D01*
X0138545Y0166618D01*
X0138592Y0166780D01*
X0138643Y0166941D01*
X0138698Y0167101D01*
X0138757Y0167260D01*
X0138819Y0167417D01*
X0138886Y0167572D01*
X0138957Y0167726D01*
X0139031Y0167878D01*
X0139109Y0168028D01*
X0139190Y0168176D01*
X0139275Y0168322D01*
X0139364Y0168466D01*
X0139456Y0168608D01*
X0139552Y0168747D01*
X0139651Y0168884D01*
X0139753Y0169019D01*
X0139859Y0169151D01*
X0139968Y0169280D01*
X0140080Y0169407D01*
X0140195Y0169531D01*
X0140313Y0169652D01*
X0140434Y0169770D01*
X0140558Y0169885D01*
X0140685Y0169997D01*
X0140814Y0170106D01*
X0140946Y0170212D01*
X0141081Y0170314D01*
X0141218Y0170413D01*
X0141357Y0170509D01*
X0141499Y0170601D01*
X0141643Y0170690D01*
X0141789Y0170775D01*
X0141937Y0170856D01*
X0142087Y0170934D01*
X0142239Y0171008D01*
X0142393Y0171079D01*
X0142548Y0171146D01*
X0142705Y0171208D01*
X0142864Y0171267D01*
X0143024Y0171322D01*
X0143185Y0171373D01*
X0143347Y0171420D01*
X0143511Y0171464D01*
X0143675Y0171503D01*
X0143841Y0171538D01*
X0144007Y0171569D01*
X0144174Y0171595D01*
X0144342Y0171618D01*
X0144510Y0171637D01*
X0144678Y0171651D01*
X0144847Y0171662D01*
X0145016Y0171668D01*
X0145185Y0171670D01*
X0145354Y0171668D01*
X0145523Y0171662D01*
X0145692Y0171651D01*
X0145860Y0171637D01*
X0146028Y0171618D01*
X0146196Y0171595D01*
X0146363Y0171569D01*
X0146529Y0171538D01*
X0146695Y0171503D01*
X0146859Y0171464D01*
X0147023Y0171420D01*
X0147185Y0171373D01*
X0147346Y0171322D01*
X0147506Y0171267D01*
X0147665Y0171208D01*
X0147822Y0171146D01*
X0147977Y0171079D01*
X0148131Y0171008D01*
X0148283Y0170934D01*
X0148433Y0170856D01*
X0148581Y0170775D01*
X0148727Y0170690D01*
X0148871Y0170601D01*
X0149013Y0170509D01*
X0149152Y0170413D01*
X0149289Y0170314D01*
X0149424Y0170212D01*
X0149556Y0170106D01*
X0149685Y0169997D01*
X0149812Y0169885D01*
X0149936Y0169770D01*
X0150057Y0169652D01*
X0150175Y0169531D01*
X0150290Y0169407D01*
X0150402Y0169280D01*
X0150511Y0169151D01*
X0150617Y0169019D01*
X0150719Y0168884D01*
X0150818Y0168747D01*
X0150914Y0168608D01*
X0151006Y0168466D01*
X0151095Y0168322D01*
X0151180Y0168176D01*
X0151261Y0168028D01*
X0151339Y0167878D01*
X0151413Y0167726D01*
X0151484Y0167572D01*
X0151551Y0167417D01*
X0151613Y0167260D01*
X0151672Y0167101D01*
X0151727Y0166941D01*
X0151778Y0166780D01*
X0151825Y0166618D01*
X0151869Y0166454D01*
X0151908Y0166290D01*
X0151943Y0166124D01*
X0151974Y0165958D01*
X0152000Y0165791D01*
X0152023Y0165623D01*
X0152042Y0165455D01*
X0152056Y0165287D01*
X0152067Y0165118D01*
X0152073Y0164949D01*
X0152075Y0164780D01*
X0152073Y0164611D01*
X0152067Y0164442D01*
X0152056Y0164273D01*
X0152042Y0164105D01*
X0152023Y0163937D01*
X0152000Y0163769D01*
X0151974Y0163602D01*
X0151943Y0163436D01*
X0151908Y0163270D01*
X0151869Y0163106D01*
X0151825Y0162942D01*
X0151778Y0162780D01*
X0151727Y0162619D01*
X0151672Y0162459D01*
X0151613Y0162300D01*
X0151551Y0162143D01*
X0151484Y0161988D01*
X0151413Y0161834D01*
X0151339Y0161682D01*
X0151261Y0161532D01*
X0151180Y0161384D01*
X0151095Y0161238D01*
X0151006Y0161094D01*
X0150914Y0160952D01*
X0150818Y0160813D01*
X0150719Y0160676D01*
X0150617Y0160541D01*
X0150511Y0160409D01*
X0150402Y0160280D01*
X0150290Y0160153D01*
X0150175Y0160029D01*
X0150057Y0159908D01*
X0149936Y0159790D01*
X0149812Y0159675D01*
X0149685Y0159563D01*
X0149556Y0159454D01*
X0149424Y0159348D01*
X0149289Y0159246D01*
X0149152Y0159147D01*
X0149013Y0159051D01*
X0148871Y0158959D01*
X0148727Y0158870D01*
X0148581Y0158785D01*
X0148433Y0158704D01*
X0148283Y0158626D01*
X0148131Y0158552D01*
X0147977Y0158481D01*
X0147822Y0158414D01*
X0147665Y0158352D01*
X0147506Y0158293D01*
X0147346Y0158238D01*
X0147185Y0158187D01*
X0147023Y0158140D01*
X0146859Y0158096D01*
X0146695Y0158057D01*
X0146529Y0158022D01*
X0146363Y0157991D01*
X0146196Y0157965D01*
X0146028Y0157942D01*
X0145860Y0157923D01*
X0145692Y0157909D01*
X0145523Y0157898D01*
X0145354Y0157892D01*
X0145185Y0157890D01*
X0145016Y0157892D01*
X0144847Y0157898D01*
X0144678Y0157909D01*
X0144510Y0157923D01*
X0144342Y0157942D01*
X0144174Y0157965D01*
X0144007Y0157991D01*
X0143841Y0158022D01*
X0143675Y0158057D01*
X0143511Y0158096D01*
X0143347Y0158140D01*
X0143185Y0158187D01*
X0143024Y0158238D01*
X0142864Y0158293D01*
X0142705Y0158352D01*
X0142548Y0158414D01*
X0142393Y0158481D01*
X0142239Y0158552D01*
X0142087Y0158626D01*
X0141937Y0158704D01*
X0141789Y0158785D01*
X0141643Y0158870D01*
X0141499Y0158959D01*
X0141357Y0159051D01*
X0141218Y0159147D01*
X0141081Y0159246D01*
X0140946Y0159348D01*
X0140814Y0159454D01*
X0140685Y0159563D01*
X0140558Y0159675D01*
X0140434Y0159790D01*
X0140313Y0159908D01*
X0140195Y0160029D01*
X0140080Y0160153D01*
X0139968Y0160280D01*
X0139859Y0160409D01*
X0139753Y0160541D01*
X0139651Y0160676D01*
X0139552Y0160813D01*
X0139456Y0160952D01*
X0139364Y0161094D01*
X0139275Y0161238D01*
X0139190Y0161384D01*
X0139109Y0161532D01*
X0139031Y0161682D01*
X0138957Y0161834D01*
X0138886Y0161988D01*
X0138819Y0162143D01*
X0138757Y0162300D01*
X0138698Y0162459D01*
X0138643Y0162619D01*
X0138592Y0162780D01*
X0138545Y0162942D01*
X0138501Y0163106D01*
X0138462Y0163270D01*
X0138427Y0163436D01*
X0138396Y0163602D01*
X0138370Y0163769D01*
X0138347Y0163937D01*
X0138328Y0164105D01*
X0138314Y0164273D01*
X0138303Y0164442D01*
X0138297Y0164611D01*
X0138295Y0164780D01*
D16*
X0079949Y0116945D02*
X0074437Y0116945D01*
X0071681Y0115764D02*
X0071681Y0113008D01*
X0069319Y0110646D01*
X0069319Y0115371D01*
X0071681Y0113008D01*
X0071681Y0110252D01*
X0074437Y0109071D02*
X0079949Y0109071D01*
X0079949Y0116945D01*
X0079949Y0106945D02*
X0074437Y0106945D01*
X0071681Y0105764D02*
X0071681Y0103008D01*
X0069319Y0100646D01*
X0069319Y0105371D01*
X0071681Y0103008D01*
X0071681Y0100252D01*
X0074437Y0099071D02*
X0079949Y0099071D01*
X0079949Y0106945D01*
X0066563Y0106945D02*
X0061051Y0106945D01*
X0061051Y0099071D01*
X0066563Y0099071D01*
X0066563Y0109071D02*
X0061051Y0109071D01*
X0061051Y0116945D01*
X0066563Y0116945D01*
X0026720Y0111394D02*
X0026720Y0106670D01*
X0021209Y0106670D01*
X0021209Y0089347D01*
X0026720Y0089347D01*
X0026720Y0084623D01*
X0020421Y0084623D01*
X0009791Y0084623D02*
X0009791Y0111394D01*
X0007035Y0111394D02*
X0004673Y0113756D01*
X0020421Y0111394D02*
X0026720Y0111394D01*
X0007035Y0084623D02*
X0004673Y0082260D01*
X0036602Y0060331D02*
X0038177Y0061906D01*
X0072823Y0061906D01*
X0074398Y0060331D01*
X0074398Y0025685D01*
X0072823Y0024111D01*
X0038177Y0024111D01*
X0036602Y0025685D01*
X0036602Y0060331D01*
X0071051Y0012570D02*
X0076563Y0012570D01*
X0079319Y0011389D02*
X0079319Y0008633D01*
X0081681Y0010996D01*
X0081681Y0006271D01*
X0079319Y0008633D01*
X0079319Y0005877D01*
X0076563Y0004696D02*
X0071051Y0004696D01*
X0071051Y0012570D01*
X0084437Y0012570D02*
X0089949Y0012570D01*
X0089949Y0004696D01*
X0084437Y0004696D01*
D17*
X0038639Y0027260D02*
X0038641Y0027327D01*
X0038647Y0027393D01*
X0038657Y0027459D01*
X0038671Y0027524D01*
X0038688Y0027588D01*
X0038710Y0027651D01*
X0038735Y0027713D01*
X0038764Y0027773D01*
X0038797Y0027831D01*
X0038832Y0027887D01*
X0038872Y0027941D01*
X0038914Y0027992D01*
X0038959Y0028041D01*
X0039007Y0028087D01*
X0039058Y0028130D01*
X0039111Y0028170D01*
X0039167Y0028207D01*
X0039225Y0028240D01*
X0039284Y0028270D01*
X0039345Y0028296D01*
X0039408Y0028319D01*
X0039472Y0028337D01*
X0039537Y0028352D01*
X0039603Y0028363D01*
X0039669Y0028370D01*
X0039735Y0028373D01*
X0039802Y0028372D01*
X0039868Y0028367D01*
X0039934Y0028358D01*
X0040000Y0028345D01*
X0040064Y0028328D01*
X0040127Y0028308D01*
X0040189Y0028283D01*
X0040250Y0028255D01*
X0040309Y0028224D01*
X0040365Y0028189D01*
X0040420Y0028151D01*
X0040472Y0028109D01*
X0040521Y0028064D01*
X0040568Y0028017D01*
X0040612Y0027967D01*
X0040652Y0027914D01*
X0040690Y0027859D01*
X0040724Y0027802D01*
X0040755Y0027743D01*
X0040782Y0027682D01*
X0040805Y0027620D01*
X0040825Y0027556D01*
X0040841Y0027491D01*
X0040853Y0027426D01*
X0040861Y0027360D01*
X0040865Y0027293D01*
X0040865Y0027227D01*
X0040861Y0027160D01*
X0040853Y0027094D01*
X0040841Y0027029D01*
X0040825Y0026964D01*
X0040805Y0026900D01*
X0040782Y0026838D01*
X0040755Y0026777D01*
X0040724Y0026718D01*
X0040690Y0026661D01*
X0040652Y0026606D01*
X0040612Y0026553D01*
X0040568Y0026503D01*
X0040521Y0026456D01*
X0040472Y0026411D01*
X0040420Y0026369D01*
X0040365Y0026331D01*
X0040308Y0026296D01*
X0040250Y0026265D01*
X0040189Y0026237D01*
X0040127Y0026212D01*
X0040064Y0026192D01*
X0040000Y0026175D01*
X0039934Y0026162D01*
X0039868Y0026153D01*
X0039802Y0026148D01*
X0039735Y0026147D01*
X0039669Y0026150D01*
X0039603Y0026157D01*
X0039537Y0026168D01*
X0039472Y0026183D01*
X0039408Y0026201D01*
X0039345Y0026224D01*
X0039284Y0026250D01*
X0039225Y0026280D01*
X0039167Y0026313D01*
X0039111Y0026350D01*
X0039058Y0026390D01*
X0039007Y0026433D01*
X0038959Y0026479D01*
X0038914Y0026528D01*
X0038872Y0026579D01*
X0038832Y0026633D01*
X0038797Y0026689D01*
X0038764Y0026747D01*
X0038735Y0026807D01*
X0038710Y0026869D01*
X0038688Y0026932D01*
X0038671Y0026996D01*
X0038657Y0027061D01*
X0038647Y0027127D01*
X0038641Y0027193D01*
X0038639Y0027260D01*
D18*
X0039752Y0021256D03*
X0055500Y0021256D03*
X0071248Y0021256D03*
X0071248Y0064760D03*
X0055500Y0064760D03*
X0039752Y0064760D03*
D19*
X0042902Y0064760D03*
X0046052Y0064760D03*
X0064948Y0064760D03*
X0068098Y0064760D03*
X0068098Y0021256D03*
X0064948Y0021256D03*
X0046052Y0021256D03*
X0042902Y0021256D03*
D20*
X0049201Y0021256D03*
X0052351Y0021256D03*
X0058649Y0021256D03*
X0061799Y0021256D03*
X0061799Y0064760D03*
X0058649Y0064760D03*
X0052351Y0064760D03*
X0049201Y0064760D03*
D21*
X0033748Y0058756D03*
X0033748Y0043008D03*
X0033748Y0027260D03*
X0077252Y0027260D03*
X0077252Y0043008D03*
X0077252Y0058756D03*
D22*
X0077252Y0055607D03*
X0077252Y0052457D03*
X0077252Y0033560D03*
X0077252Y0030410D03*
X0033748Y0030410D03*
X0033748Y0033560D03*
X0033748Y0052457D03*
X0033748Y0055607D03*
D23*
X0033748Y0049308D03*
X0033748Y0046158D03*
X0033748Y0039859D03*
X0033748Y0036709D03*
X0077252Y0036709D03*
X0077252Y0039859D03*
X0077252Y0046158D03*
X0077252Y0049308D03*
D24*
X0090500Y0046408D03*
X0090500Y0039608D03*
X0090500Y0026408D03*
X0090500Y0019608D03*
X0021750Y0053358D03*
X0021750Y0060158D03*
X0035500Y0085233D03*
X0045500Y0085233D03*
X0045500Y0092033D03*
X0035500Y0092033D03*
X0055500Y0092033D03*
X0055500Y0085233D03*
D25*
X0055047Y0008008D03*
X0060953Y0008008D03*
D26*
X0096839Y0030874D02*
X0096839Y0052643D01*
X0096841Y0052708D01*
X0096847Y0052772D01*
X0096856Y0052836D01*
X0096869Y0052900D01*
X0096886Y0052962D01*
X0096906Y0053024D01*
X0096930Y0053084D01*
X0096957Y0053143D01*
X0096988Y0053200D01*
X0097022Y0053255D01*
X0097059Y0053308D01*
X0097099Y0053358D01*
X0097142Y0053407D01*
X0097188Y0053453D01*
X0097237Y0053496D01*
X0097287Y0053536D01*
X0097340Y0053573D01*
X0097396Y0053607D01*
X0097452Y0053638D01*
X0097511Y0053665D01*
X0097571Y0053689D01*
X0097633Y0053709D01*
X0097695Y0053726D01*
X0097759Y0053739D01*
X0097823Y0053748D01*
X0097887Y0053754D01*
X0097952Y0053756D01*
X0108281Y0053756D01*
X0108339Y0053754D01*
X0108396Y0053748D01*
X0108453Y0053739D01*
X0108509Y0053726D01*
X0108564Y0053709D01*
X0108618Y0053689D01*
X0108670Y0053665D01*
X0108721Y0053638D01*
X0108770Y0053608D01*
X0108817Y0053574D01*
X0108861Y0053538D01*
X0108903Y0053498D01*
X0108943Y0053456D01*
X0108979Y0053412D01*
X0109013Y0053365D01*
X0109043Y0053316D01*
X0109070Y0053265D01*
X0109094Y0053213D01*
X0109114Y0053159D01*
X0109131Y0053104D01*
X0109144Y0053048D01*
X0109153Y0052991D01*
X0109159Y0052934D01*
X0109161Y0052876D01*
X0109161Y0031005D01*
X0109162Y0031005D02*
X0109160Y0030935D01*
X0109154Y0030866D01*
X0109144Y0030796D01*
X0109131Y0030728D01*
X0109113Y0030660D01*
X0109092Y0030594D01*
X0109067Y0030529D01*
X0109039Y0030465D01*
X0109007Y0030403D01*
X0108971Y0030343D01*
X0108932Y0030285D01*
X0108890Y0030229D01*
X0108845Y0030175D01*
X0108797Y0030125D01*
X0108747Y0030077D01*
X0108693Y0030032D01*
X0108637Y0029990D01*
X0108579Y0029951D01*
X0108519Y0029915D01*
X0108457Y0029883D01*
X0108393Y0029855D01*
X0108328Y0029830D01*
X0108262Y0029809D01*
X0108194Y0029791D01*
X0108126Y0029778D01*
X0108056Y0029768D01*
X0107987Y0029762D01*
X0107917Y0029760D01*
X0097952Y0029760D01*
X0097952Y0029761D02*
X0097887Y0029763D01*
X0097823Y0029769D01*
X0097759Y0029778D01*
X0097695Y0029791D01*
X0097633Y0029808D01*
X0097571Y0029828D01*
X0097511Y0029852D01*
X0097452Y0029879D01*
X0097396Y0029910D01*
X0097340Y0029944D01*
X0097287Y0029981D01*
X0097237Y0030021D01*
X0097188Y0030064D01*
X0097142Y0030110D01*
X0097099Y0030159D01*
X0097059Y0030209D01*
X0097022Y0030262D01*
X0096988Y0030318D01*
X0096957Y0030374D01*
X0096930Y0030433D01*
X0096906Y0030493D01*
X0096886Y0030555D01*
X0096869Y0030617D01*
X0096856Y0030681D01*
X0096847Y0030745D01*
X0096841Y0030809D01*
X0096839Y0030874D01*
X0098413Y0033304D02*
X0098413Y0050213D01*
X0098415Y0050290D01*
X0098421Y0050367D01*
X0098430Y0050444D01*
X0098443Y0050520D01*
X0098460Y0050596D01*
X0098481Y0050670D01*
X0098505Y0050744D01*
X0098533Y0050816D01*
X0098564Y0050886D01*
X0098599Y0050955D01*
X0098637Y0051023D01*
X0098678Y0051088D01*
X0098723Y0051151D01*
X0098771Y0051212D01*
X0098821Y0051271D01*
X0098874Y0051327D01*
X0098930Y0051380D01*
X0098989Y0051430D01*
X0099050Y0051478D01*
X0099113Y0051523D01*
X0099178Y0051564D01*
X0099246Y0051602D01*
X0099315Y0051637D01*
X0099385Y0051668D01*
X0099457Y0051696D01*
X0099531Y0051720D01*
X0099605Y0051741D01*
X0099681Y0051758D01*
X0099757Y0051771D01*
X0099834Y0051780D01*
X0099911Y0051786D01*
X0099988Y0051788D01*
X0106012Y0051788D01*
X0106098Y0051786D01*
X0106184Y0051781D01*
X0106269Y0051771D01*
X0106354Y0051758D01*
X0106438Y0051741D01*
X0106522Y0051721D01*
X0106604Y0051697D01*
X0106685Y0051669D01*
X0106766Y0051638D01*
X0106844Y0051604D01*
X0106921Y0051566D01*
X0106997Y0051524D01*
X0107070Y0051480D01*
X0107141Y0051432D01*
X0107211Y0051381D01*
X0107278Y0051327D01*
X0107342Y0051271D01*
X0107404Y0051211D01*
X0107464Y0051149D01*
X0107520Y0051085D01*
X0107574Y0051018D01*
X0107625Y0050948D01*
X0107673Y0050877D01*
X0107717Y0050804D01*
X0107759Y0050728D01*
X0107797Y0050651D01*
X0107831Y0050573D01*
X0107862Y0050492D01*
X0107890Y0050411D01*
X0107914Y0050329D01*
X0107934Y0050245D01*
X0107951Y0050161D01*
X0107964Y0050076D01*
X0107974Y0049991D01*
X0107979Y0049905D01*
X0107981Y0049819D01*
X0107980Y0049819D02*
X0107980Y0033304D01*
X0107981Y0033303D02*
X0107970Y0033221D01*
X0107955Y0033140D01*
X0107937Y0033060D01*
X0107915Y0032981D01*
X0107889Y0032903D01*
X0107860Y0032826D01*
X0107827Y0032750D01*
X0107790Y0032676D01*
X0107751Y0032604D01*
X0107708Y0032534D01*
X0107661Y0032466D01*
X0107612Y0032400D01*
X0107560Y0032336D01*
X0107505Y0032275D01*
X0107447Y0032216D01*
X0107386Y0032161D01*
X0107323Y0032108D01*
X0107257Y0032058D01*
X0107190Y0032011D01*
X0107120Y0031967D01*
X0107048Y0031927D01*
X0106974Y0031890D01*
X0106899Y0031856D01*
X0106823Y0031826D01*
X0106745Y0031799D01*
X0106666Y0031776D01*
X0106585Y0031757D01*
X0106505Y0031742D01*
X0106423Y0031730D01*
X0106341Y0031722D01*
X0106259Y0031718D01*
X0106176Y0031717D01*
X0106094Y0031721D01*
X0106012Y0031728D01*
X0106012Y0031729D02*
X0099988Y0031729D01*
X0099911Y0031731D01*
X0099834Y0031737D01*
X0099757Y0031746D01*
X0099681Y0031759D01*
X0099605Y0031776D01*
X0099531Y0031797D01*
X0099457Y0031821D01*
X0099385Y0031849D01*
X0099315Y0031880D01*
X0099246Y0031915D01*
X0099178Y0031953D01*
X0099113Y0031994D01*
X0099050Y0032039D01*
X0098989Y0032087D01*
X0098930Y0032137D01*
X0098874Y0032190D01*
X0098821Y0032246D01*
X0098771Y0032305D01*
X0098723Y0032366D01*
X0098678Y0032429D01*
X0098637Y0032494D01*
X0098599Y0032562D01*
X0098564Y0032631D01*
X0098533Y0032701D01*
X0098505Y0032773D01*
X0098481Y0032847D01*
X0098460Y0032921D01*
X0098443Y0032997D01*
X0098430Y0033073D01*
X0098421Y0033150D01*
X0098415Y0033227D01*
X0098413Y0033304D01*
X0160657Y0043166D02*
X0160657Y0059308D01*
X0164201Y0062851D01*
X0165579Y0064229D01*
X0163807Y0066000D01*
X0160657Y0062851D01*
X0164201Y0062851D01*
X0180343Y0062851D01*
X0180343Y0043166D01*
X0160657Y0043166D01*
X0163727Y0053008D02*
X0163729Y0053174D01*
X0163735Y0053340D01*
X0163745Y0053506D01*
X0163760Y0053672D01*
X0163778Y0053837D01*
X0163800Y0054002D01*
X0163827Y0054166D01*
X0163857Y0054329D01*
X0163892Y0054492D01*
X0163930Y0054654D01*
X0163972Y0054814D01*
X0164019Y0054974D01*
X0164069Y0055133D01*
X0164123Y0055290D01*
X0164181Y0055446D01*
X0164243Y0055600D01*
X0164308Y0055753D01*
X0164377Y0055904D01*
X0164450Y0056053D01*
X0164527Y0056201D01*
X0164607Y0056346D01*
X0164691Y0056490D01*
X0164778Y0056632D01*
X0164868Y0056771D01*
X0164962Y0056908D01*
X0165060Y0057043D01*
X0165161Y0057175D01*
X0165264Y0057305D01*
X0165371Y0057432D01*
X0165482Y0057556D01*
X0165595Y0057678D01*
X0165711Y0057797D01*
X0165830Y0057913D01*
X0165952Y0058026D01*
X0166076Y0058137D01*
X0166203Y0058244D01*
X0166333Y0058347D01*
X0166465Y0058448D01*
X0166600Y0058546D01*
X0166737Y0058640D01*
X0166876Y0058730D01*
X0167018Y0058817D01*
X0167162Y0058901D01*
X0167307Y0058981D01*
X0167455Y0059058D01*
X0167604Y0059131D01*
X0167755Y0059200D01*
X0167908Y0059265D01*
X0168062Y0059327D01*
X0168218Y0059385D01*
X0168375Y0059439D01*
X0168534Y0059489D01*
X0168694Y0059536D01*
X0168854Y0059578D01*
X0169016Y0059616D01*
X0169179Y0059651D01*
X0169342Y0059681D01*
X0169506Y0059708D01*
X0169671Y0059730D01*
X0169836Y0059748D01*
X0170002Y0059763D01*
X0170168Y0059773D01*
X0170334Y0059779D01*
X0170500Y0059781D01*
X0170666Y0059779D01*
X0170832Y0059773D01*
X0170998Y0059763D01*
X0171164Y0059748D01*
X0171329Y0059730D01*
X0171494Y0059708D01*
X0171658Y0059681D01*
X0171821Y0059651D01*
X0171984Y0059616D01*
X0172146Y0059578D01*
X0172306Y0059536D01*
X0172466Y0059489D01*
X0172625Y0059439D01*
X0172782Y0059385D01*
X0172938Y0059327D01*
X0173092Y0059265D01*
X0173245Y0059200D01*
X0173396Y0059131D01*
X0173545Y0059058D01*
X0173693Y0058981D01*
X0173838Y0058901D01*
X0173982Y0058817D01*
X0174124Y0058730D01*
X0174263Y0058640D01*
X0174400Y0058546D01*
X0174535Y0058448D01*
X0174667Y0058347D01*
X0174797Y0058244D01*
X0174924Y0058137D01*
X0175048Y0058026D01*
X0175170Y0057913D01*
X0175289Y0057797D01*
X0175405Y0057678D01*
X0175518Y0057556D01*
X0175629Y0057432D01*
X0175736Y0057305D01*
X0175839Y0057175D01*
X0175940Y0057043D01*
X0176038Y0056908D01*
X0176132Y0056771D01*
X0176222Y0056632D01*
X0176309Y0056490D01*
X0176393Y0056346D01*
X0176473Y0056201D01*
X0176550Y0056053D01*
X0176623Y0055904D01*
X0176692Y0055753D01*
X0176757Y0055600D01*
X0176819Y0055446D01*
X0176877Y0055290D01*
X0176931Y0055133D01*
X0176981Y0054974D01*
X0177028Y0054814D01*
X0177070Y0054654D01*
X0177108Y0054492D01*
X0177143Y0054329D01*
X0177173Y0054166D01*
X0177200Y0054002D01*
X0177222Y0053837D01*
X0177240Y0053672D01*
X0177255Y0053506D01*
X0177265Y0053340D01*
X0177271Y0053174D01*
X0177273Y0053008D01*
X0177271Y0052842D01*
X0177265Y0052676D01*
X0177255Y0052510D01*
X0177240Y0052344D01*
X0177222Y0052179D01*
X0177200Y0052014D01*
X0177173Y0051850D01*
X0177143Y0051687D01*
X0177108Y0051524D01*
X0177070Y0051362D01*
X0177028Y0051202D01*
X0176981Y0051042D01*
X0176931Y0050883D01*
X0176877Y0050726D01*
X0176819Y0050570D01*
X0176757Y0050416D01*
X0176692Y0050263D01*
X0176623Y0050112D01*
X0176550Y0049963D01*
X0176473Y0049815D01*
X0176393Y0049670D01*
X0176309Y0049526D01*
X0176222Y0049384D01*
X0176132Y0049245D01*
X0176038Y0049108D01*
X0175940Y0048973D01*
X0175839Y0048841D01*
X0175736Y0048711D01*
X0175629Y0048584D01*
X0175518Y0048460D01*
X0175405Y0048338D01*
X0175289Y0048219D01*
X0175170Y0048103D01*
X0175048Y0047990D01*
X0174924Y0047879D01*
X0174797Y0047772D01*
X0174667Y0047669D01*
X0174535Y0047568D01*
X0174400Y0047470D01*
X0174263Y0047376D01*
X0174124Y0047286D01*
X0173982Y0047199D01*
X0173838Y0047115D01*
X0173693Y0047035D01*
X0173545Y0046958D01*
X0173396Y0046885D01*
X0173245Y0046816D01*
X0173092Y0046751D01*
X0172938Y0046689D01*
X0172782Y0046631D01*
X0172625Y0046577D01*
X0172466Y0046527D01*
X0172306Y0046480D01*
X0172146Y0046438D01*
X0171984Y0046400D01*
X0171821Y0046365D01*
X0171658Y0046335D01*
X0171494Y0046308D01*
X0171329Y0046286D01*
X0171164Y0046268D01*
X0170998Y0046253D01*
X0170832Y0046243D01*
X0170666Y0046237D01*
X0170500Y0046235D01*
X0170334Y0046237D01*
X0170168Y0046243D01*
X0170002Y0046253D01*
X0169836Y0046268D01*
X0169671Y0046286D01*
X0169506Y0046308D01*
X0169342Y0046335D01*
X0169179Y0046365D01*
X0169016Y0046400D01*
X0168854Y0046438D01*
X0168694Y0046480D01*
X0168534Y0046527D01*
X0168375Y0046577D01*
X0168218Y0046631D01*
X0168062Y0046689D01*
X0167908Y0046751D01*
X0167755Y0046816D01*
X0167604Y0046885D01*
X0167455Y0046958D01*
X0167307Y0047035D01*
X0167162Y0047115D01*
X0167018Y0047199D01*
X0166876Y0047286D01*
X0166737Y0047376D01*
X0166600Y0047470D01*
X0166465Y0047568D01*
X0166333Y0047669D01*
X0166203Y0047772D01*
X0166076Y0047879D01*
X0165952Y0047990D01*
X0165830Y0048103D01*
X0165711Y0048219D01*
X0165595Y0048338D01*
X0165482Y0048460D01*
X0165371Y0048584D01*
X0165264Y0048711D01*
X0165161Y0048841D01*
X0165060Y0048973D01*
X0164962Y0049108D01*
X0164868Y0049245D01*
X0164778Y0049384D01*
X0164691Y0049526D01*
X0164607Y0049670D01*
X0164527Y0049815D01*
X0164450Y0049963D01*
X0164377Y0050112D01*
X0164308Y0050263D01*
X0164243Y0050416D01*
X0164181Y0050570D01*
X0164123Y0050726D01*
X0164069Y0050883D01*
X0164019Y0051042D01*
X0163972Y0051202D01*
X0163930Y0051362D01*
X0163892Y0051524D01*
X0163857Y0051687D01*
X0163827Y0051850D01*
X0163800Y0052014D01*
X0163778Y0052179D01*
X0163760Y0052344D01*
X0163745Y0052510D01*
X0163735Y0052676D01*
X0163729Y0052842D01*
X0163727Y0053008D01*
X0160657Y0059308D02*
X0160657Y0062851D01*
X0160657Y0073166D02*
X0160657Y0089308D01*
X0164201Y0092851D01*
X0165579Y0094229D01*
X0163807Y0096000D01*
X0160657Y0092851D01*
X0164201Y0092851D01*
X0180343Y0092851D01*
X0180343Y0073166D01*
X0160657Y0073166D01*
X0163727Y0083008D02*
X0163729Y0083174D01*
X0163735Y0083340D01*
X0163745Y0083506D01*
X0163760Y0083672D01*
X0163778Y0083837D01*
X0163800Y0084002D01*
X0163827Y0084166D01*
X0163857Y0084329D01*
X0163892Y0084492D01*
X0163930Y0084654D01*
X0163972Y0084814D01*
X0164019Y0084974D01*
X0164069Y0085133D01*
X0164123Y0085290D01*
X0164181Y0085446D01*
X0164243Y0085600D01*
X0164308Y0085753D01*
X0164377Y0085904D01*
X0164450Y0086053D01*
X0164527Y0086201D01*
X0164607Y0086346D01*
X0164691Y0086490D01*
X0164778Y0086632D01*
X0164868Y0086771D01*
X0164962Y0086908D01*
X0165060Y0087043D01*
X0165161Y0087175D01*
X0165264Y0087305D01*
X0165371Y0087432D01*
X0165482Y0087556D01*
X0165595Y0087678D01*
X0165711Y0087797D01*
X0165830Y0087913D01*
X0165952Y0088026D01*
X0166076Y0088137D01*
X0166203Y0088244D01*
X0166333Y0088347D01*
X0166465Y0088448D01*
X0166600Y0088546D01*
X0166737Y0088640D01*
X0166876Y0088730D01*
X0167018Y0088817D01*
X0167162Y0088901D01*
X0167307Y0088981D01*
X0167455Y0089058D01*
X0167604Y0089131D01*
X0167755Y0089200D01*
X0167908Y0089265D01*
X0168062Y0089327D01*
X0168218Y0089385D01*
X0168375Y0089439D01*
X0168534Y0089489D01*
X0168694Y0089536D01*
X0168854Y0089578D01*
X0169016Y0089616D01*
X0169179Y0089651D01*
X0169342Y0089681D01*
X0169506Y0089708D01*
X0169671Y0089730D01*
X0169836Y0089748D01*
X0170002Y0089763D01*
X0170168Y0089773D01*
X0170334Y0089779D01*
X0170500Y0089781D01*
X0170666Y0089779D01*
X0170832Y0089773D01*
X0170998Y0089763D01*
X0171164Y0089748D01*
X0171329Y0089730D01*
X0171494Y0089708D01*
X0171658Y0089681D01*
X0171821Y0089651D01*
X0171984Y0089616D01*
X0172146Y0089578D01*
X0172306Y0089536D01*
X0172466Y0089489D01*
X0172625Y0089439D01*
X0172782Y0089385D01*
X0172938Y0089327D01*
X0173092Y0089265D01*
X0173245Y0089200D01*
X0173396Y0089131D01*
X0173545Y0089058D01*
X0173693Y0088981D01*
X0173838Y0088901D01*
X0173982Y0088817D01*
X0174124Y0088730D01*
X0174263Y0088640D01*
X0174400Y0088546D01*
X0174535Y0088448D01*
X0174667Y0088347D01*
X0174797Y0088244D01*
X0174924Y0088137D01*
X0175048Y0088026D01*
X0175170Y0087913D01*
X0175289Y0087797D01*
X0175405Y0087678D01*
X0175518Y0087556D01*
X0175629Y0087432D01*
X0175736Y0087305D01*
X0175839Y0087175D01*
X0175940Y0087043D01*
X0176038Y0086908D01*
X0176132Y0086771D01*
X0176222Y0086632D01*
X0176309Y0086490D01*
X0176393Y0086346D01*
X0176473Y0086201D01*
X0176550Y0086053D01*
X0176623Y0085904D01*
X0176692Y0085753D01*
X0176757Y0085600D01*
X0176819Y0085446D01*
X0176877Y0085290D01*
X0176931Y0085133D01*
X0176981Y0084974D01*
X0177028Y0084814D01*
X0177070Y0084654D01*
X0177108Y0084492D01*
X0177143Y0084329D01*
X0177173Y0084166D01*
X0177200Y0084002D01*
X0177222Y0083837D01*
X0177240Y0083672D01*
X0177255Y0083506D01*
X0177265Y0083340D01*
X0177271Y0083174D01*
X0177273Y0083008D01*
X0177271Y0082842D01*
X0177265Y0082676D01*
X0177255Y0082510D01*
X0177240Y0082344D01*
X0177222Y0082179D01*
X0177200Y0082014D01*
X0177173Y0081850D01*
X0177143Y0081687D01*
X0177108Y0081524D01*
X0177070Y0081362D01*
X0177028Y0081202D01*
X0176981Y0081042D01*
X0176931Y0080883D01*
X0176877Y0080726D01*
X0176819Y0080570D01*
X0176757Y0080416D01*
X0176692Y0080263D01*
X0176623Y0080112D01*
X0176550Y0079963D01*
X0176473Y0079815D01*
X0176393Y0079670D01*
X0176309Y0079526D01*
X0176222Y0079384D01*
X0176132Y0079245D01*
X0176038Y0079108D01*
X0175940Y0078973D01*
X0175839Y0078841D01*
X0175736Y0078711D01*
X0175629Y0078584D01*
X0175518Y0078460D01*
X0175405Y0078338D01*
X0175289Y0078219D01*
X0175170Y0078103D01*
X0175048Y0077990D01*
X0174924Y0077879D01*
X0174797Y0077772D01*
X0174667Y0077669D01*
X0174535Y0077568D01*
X0174400Y0077470D01*
X0174263Y0077376D01*
X0174124Y0077286D01*
X0173982Y0077199D01*
X0173838Y0077115D01*
X0173693Y0077035D01*
X0173545Y0076958D01*
X0173396Y0076885D01*
X0173245Y0076816D01*
X0173092Y0076751D01*
X0172938Y0076689D01*
X0172782Y0076631D01*
X0172625Y0076577D01*
X0172466Y0076527D01*
X0172306Y0076480D01*
X0172146Y0076438D01*
X0171984Y0076400D01*
X0171821Y0076365D01*
X0171658Y0076335D01*
X0171494Y0076308D01*
X0171329Y0076286D01*
X0171164Y0076268D01*
X0170998Y0076253D01*
X0170832Y0076243D01*
X0170666Y0076237D01*
X0170500Y0076235D01*
X0170334Y0076237D01*
X0170168Y0076243D01*
X0170002Y0076253D01*
X0169836Y0076268D01*
X0169671Y0076286D01*
X0169506Y0076308D01*
X0169342Y0076335D01*
X0169179Y0076365D01*
X0169016Y0076400D01*
X0168854Y0076438D01*
X0168694Y0076480D01*
X0168534Y0076527D01*
X0168375Y0076577D01*
X0168218Y0076631D01*
X0168062Y0076689D01*
X0167908Y0076751D01*
X0167755Y0076816D01*
X0167604Y0076885D01*
X0167455Y0076958D01*
X0167307Y0077035D01*
X0167162Y0077115D01*
X0167018Y0077199D01*
X0166876Y0077286D01*
X0166737Y0077376D01*
X0166600Y0077470D01*
X0166465Y0077568D01*
X0166333Y0077669D01*
X0166203Y0077772D01*
X0166076Y0077879D01*
X0165952Y0077990D01*
X0165830Y0078103D01*
X0165711Y0078219D01*
X0165595Y0078338D01*
X0165482Y0078460D01*
X0165371Y0078584D01*
X0165264Y0078711D01*
X0165161Y0078841D01*
X0165060Y0078973D01*
X0164962Y0079108D01*
X0164868Y0079245D01*
X0164778Y0079384D01*
X0164691Y0079526D01*
X0164607Y0079670D01*
X0164527Y0079815D01*
X0164450Y0079963D01*
X0164377Y0080112D01*
X0164308Y0080263D01*
X0164243Y0080416D01*
X0164181Y0080570D01*
X0164123Y0080726D01*
X0164069Y0080883D01*
X0164019Y0081042D01*
X0163972Y0081202D01*
X0163930Y0081362D01*
X0163892Y0081524D01*
X0163857Y0081687D01*
X0163827Y0081850D01*
X0163800Y0082014D01*
X0163778Y0082179D01*
X0163760Y0082344D01*
X0163745Y0082510D01*
X0163735Y0082676D01*
X0163729Y0082842D01*
X0163727Y0083008D01*
X0160657Y0089308D02*
X0160657Y0092851D01*
X0160657Y0103166D02*
X0160657Y0119308D01*
X0164201Y0122851D01*
X0165579Y0124229D01*
X0163807Y0126000D01*
X0160657Y0122851D01*
X0164201Y0122851D01*
X0180343Y0122851D01*
X0180343Y0103166D01*
X0160657Y0103166D01*
X0163727Y0113008D02*
X0163729Y0113174D01*
X0163735Y0113340D01*
X0163745Y0113506D01*
X0163760Y0113672D01*
X0163778Y0113837D01*
X0163800Y0114002D01*
X0163827Y0114166D01*
X0163857Y0114329D01*
X0163892Y0114492D01*
X0163930Y0114654D01*
X0163972Y0114814D01*
X0164019Y0114974D01*
X0164069Y0115133D01*
X0164123Y0115290D01*
X0164181Y0115446D01*
X0164243Y0115600D01*
X0164308Y0115753D01*
X0164377Y0115904D01*
X0164450Y0116053D01*
X0164527Y0116201D01*
X0164607Y0116346D01*
X0164691Y0116490D01*
X0164778Y0116632D01*
X0164868Y0116771D01*
X0164962Y0116908D01*
X0165060Y0117043D01*
X0165161Y0117175D01*
X0165264Y0117305D01*
X0165371Y0117432D01*
X0165482Y0117556D01*
X0165595Y0117678D01*
X0165711Y0117797D01*
X0165830Y0117913D01*
X0165952Y0118026D01*
X0166076Y0118137D01*
X0166203Y0118244D01*
X0166333Y0118347D01*
X0166465Y0118448D01*
X0166600Y0118546D01*
X0166737Y0118640D01*
X0166876Y0118730D01*
X0167018Y0118817D01*
X0167162Y0118901D01*
X0167307Y0118981D01*
X0167455Y0119058D01*
X0167604Y0119131D01*
X0167755Y0119200D01*
X0167908Y0119265D01*
X0168062Y0119327D01*
X0168218Y0119385D01*
X0168375Y0119439D01*
X0168534Y0119489D01*
X0168694Y0119536D01*
X0168854Y0119578D01*
X0169016Y0119616D01*
X0169179Y0119651D01*
X0169342Y0119681D01*
X0169506Y0119708D01*
X0169671Y0119730D01*
X0169836Y0119748D01*
X0170002Y0119763D01*
X0170168Y0119773D01*
X0170334Y0119779D01*
X0170500Y0119781D01*
X0170666Y0119779D01*
X0170832Y0119773D01*
X0170998Y0119763D01*
X0171164Y0119748D01*
X0171329Y0119730D01*
X0171494Y0119708D01*
X0171658Y0119681D01*
X0171821Y0119651D01*
X0171984Y0119616D01*
X0172146Y0119578D01*
X0172306Y0119536D01*
X0172466Y0119489D01*
X0172625Y0119439D01*
X0172782Y0119385D01*
X0172938Y0119327D01*
X0173092Y0119265D01*
X0173245Y0119200D01*
X0173396Y0119131D01*
X0173545Y0119058D01*
X0173693Y0118981D01*
X0173838Y0118901D01*
X0173982Y0118817D01*
X0174124Y0118730D01*
X0174263Y0118640D01*
X0174400Y0118546D01*
X0174535Y0118448D01*
X0174667Y0118347D01*
X0174797Y0118244D01*
X0174924Y0118137D01*
X0175048Y0118026D01*
X0175170Y0117913D01*
X0175289Y0117797D01*
X0175405Y0117678D01*
X0175518Y0117556D01*
X0175629Y0117432D01*
X0175736Y0117305D01*
X0175839Y0117175D01*
X0175940Y0117043D01*
X0176038Y0116908D01*
X0176132Y0116771D01*
X0176222Y0116632D01*
X0176309Y0116490D01*
X0176393Y0116346D01*
X0176473Y0116201D01*
X0176550Y0116053D01*
X0176623Y0115904D01*
X0176692Y0115753D01*
X0176757Y0115600D01*
X0176819Y0115446D01*
X0176877Y0115290D01*
X0176931Y0115133D01*
X0176981Y0114974D01*
X0177028Y0114814D01*
X0177070Y0114654D01*
X0177108Y0114492D01*
X0177143Y0114329D01*
X0177173Y0114166D01*
X0177200Y0114002D01*
X0177222Y0113837D01*
X0177240Y0113672D01*
X0177255Y0113506D01*
X0177265Y0113340D01*
X0177271Y0113174D01*
X0177273Y0113008D01*
X0177271Y0112842D01*
X0177265Y0112676D01*
X0177255Y0112510D01*
X0177240Y0112344D01*
X0177222Y0112179D01*
X0177200Y0112014D01*
X0177173Y0111850D01*
X0177143Y0111687D01*
X0177108Y0111524D01*
X0177070Y0111362D01*
X0177028Y0111202D01*
X0176981Y0111042D01*
X0176931Y0110883D01*
X0176877Y0110726D01*
X0176819Y0110570D01*
X0176757Y0110416D01*
X0176692Y0110263D01*
X0176623Y0110112D01*
X0176550Y0109963D01*
X0176473Y0109815D01*
X0176393Y0109670D01*
X0176309Y0109526D01*
X0176222Y0109384D01*
X0176132Y0109245D01*
X0176038Y0109108D01*
X0175940Y0108973D01*
X0175839Y0108841D01*
X0175736Y0108711D01*
X0175629Y0108584D01*
X0175518Y0108460D01*
X0175405Y0108338D01*
X0175289Y0108219D01*
X0175170Y0108103D01*
X0175048Y0107990D01*
X0174924Y0107879D01*
X0174797Y0107772D01*
X0174667Y0107669D01*
X0174535Y0107568D01*
X0174400Y0107470D01*
X0174263Y0107376D01*
X0174124Y0107286D01*
X0173982Y0107199D01*
X0173838Y0107115D01*
X0173693Y0107035D01*
X0173545Y0106958D01*
X0173396Y0106885D01*
X0173245Y0106816D01*
X0173092Y0106751D01*
X0172938Y0106689D01*
X0172782Y0106631D01*
X0172625Y0106577D01*
X0172466Y0106527D01*
X0172306Y0106480D01*
X0172146Y0106438D01*
X0171984Y0106400D01*
X0171821Y0106365D01*
X0171658Y0106335D01*
X0171494Y0106308D01*
X0171329Y0106286D01*
X0171164Y0106268D01*
X0170998Y0106253D01*
X0170832Y0106243D01*
X0170666Y0106237D01*
X0170500Y0106235D01*
X0170334Y0106237D01*
X0170168Y0106243D01*
X0170002Y0106253D01*
X0169836Y0106268D01*
X0169671Y0106286D01*
X0169506Y0106308D01*
X0169342Y0106335D01*
X0169179Y0106365D01*
X0169016Y0106400D01*
X0168854Y0106438D01*
X0168694Y0106480D01*
X0168534Y0106527D01*
X0168375Y0106577D01*
X0168218Y0106631D01*
X0168062Y0106689D01*
X0167908Y0106751D01*
X0167755Y0106816D01*
X0167604Y0106885D01*
X0167455Y0106958D01*
X0167307Y0107035D01*
X0167162Y0107115D01*
X0167018Y0107199D01*
X0166876Y0107286D01*
X0166737Y0107376D01*
X0166600Y0107470D01*
X0166465Y0107568D01*
X0166333Y0107669D01*
X0166203Y0107772D01*
X0166076Y0107879D01*
X0165952Y0107990D01*
X0165830Y0108103D01*
X0165711Y0108219D01*
X0165595Y0108338D01*
X0165482Y0108460D01*
X0165371Y0108584D01*
X0165264Y0108711D01*
X0165161Y0108841D01*
X0165060Y0108973D01*
X0164962Y0109108D01*
X0164868Y0109245D01*
X0164778Y0109384D01*
X0164691Y0109526D01*
X0164607Y0109670D01*
X0164527Y0109815D01*
X0164450Y0109963D01*
X0164377Y0110112D01*
X0164308Y0110263D01*
X0164243Y0110416D01*
X0164181Y0110570D01*
X0164123Y0110726D01*
X0164069Y0110883D01*
X0164019Y0111042D01*
X0163972Y0111202D01*
X0163930Y0111362D01*
X0163892Y0111524D01*
X0163857Y0111687D01*
X0163827Y0111850D01*
X0163800Y0112014D01*
X0163778Y0112179D01*
X0163760Y0112344D01*
X0163745Y0112510D01*
X0163735Y0112676D01*
X0163729Y0112842D01*
X0163727Y0113008D01*
X0160657Y0119308D02*
X0160657Y0122851D01*
X0160500Y0143008D02*
X0160500Y0183008D01*
X0090500Y0183008D01*
X0090500Y0143008D01*
X0160500Y0143008D01*
X0106432Y0178928D02*
X0103430Y0178928D01*
X0104931Y0178928D02*
X0104931Y0183431D01*
X0103430Y0181930D01*
X0026720Y0111394D02*
X0009791Y0111394D01*
X0009791Y0084623D01*
X0007035Y0084623D01*
X0007035Y0086197D01*
X0005264Y0086197D01*
X0005263Y0086198D02*
X0005204Y0086209D01*
X0005146Y0086224D01*
X0005089Y0086243D01*
X0005033Y0086265D01*
X0004979Y0086291D01*
X0004927Y0086321D01*
X0004876Y0086354D01*
X0004828Y0086389D01*
X0004782Y0086428D01*
X0004739Y0086470D01*
X0004698Y0086514D01*
X0004661Y0086561D01*
X0004626Y0086611D01*
X0004595Y0086662D01*
X0004567Y0086715D01*
X0004543Y0086770D01*
X0004522Y0086827D01*
X0004505Y0086884D01*
X0004491Y0086943D01*
X0004482Y0087002D01*
X0004476Y0087062D01*
X0004474Y0087122D01*
X0004476Y0087182D01*
X0004476Y0109032D01*
X0004477Y0109032D02*
X0004488Y0109091D01*
X0004503Y0109149D01*
X0004522Y0109206D01*
X0004544Y0109262D01*
X0004570Y0109316D01*
X0004600Y0109368D01*
X0004633Y0109419D01*
X0004668Y0109467D01*
X0004707Y0109513D01*
X0004749Y0109556D01*
X0004793Y0109597D01*
X0004840Y0109634D01*
X0004890Y0109669D01*
X0004941Y0109700D01*
X0004994Y0109728D01*
X0005049Y0109752D01*
X0005106Y0109773D01*
X0005163Y0109790D01*
X0005222Y0109804D01*
X0005281Y0109813D01*
X0005341Y0109819D01*
X0005401Y0109821D01*
X0005461Y0109819D01*
X0007035Y0109819D01*
X0007035Y0111394D01*
X0009791Y0111394D01*
X0021209Y0106670D02*
X0026720Y0106670D01*
X0026720Y0111394D01*
X0021209Y0106670D02*
X0021209Y0089347D01*
X0026720Y0089347D01*
X0026720Y0084623D01*
X0009791Y0084623D01*
X0175500Y0038008D02*
X0175500Y0008008D01*
X0185500Y0008008D01*
X0185500Y0013008D01*
X0185500Y0033008D02*
X0185500Y0038008D01*
X0175500Y0038008D01*
D27*
X0005900Y0079373D02*
X0005900Y0080307D01*
X0005433Y0080774D01*
X0003098Y0080774D01*
X0003565Y0081668D02*
X0004032Y0081668D01*
X0004499Y0082135D01*
X0004499Y0083069D01*
X0004966Y0083536D01*
X0005433Y0083536D01*
X0005900Y0083069D01*
X0005900Y0082135D01*
X0005433Y0081668D01*
X0003565Y0081668D02*
X0003098Y0082135D01*
X0003098Y0083069D01*
X0003565Y0083536D01*
X0003098Y0084430D02*
X0003098Y0085831D01*
X0003565Y0086298D01*
X0004032Y0086298D01*
X0004499Y0085831D01*
X0004499Y0084430D01*
X0005900Y0084430D02*
X0003098Y0084430D01*
X0004499Y0085831D02*
X0004966Y0086298D01*
X0005433Y0086298D01*
X0005900Y0085831D01*
X0005900Y0084430D01*
X0004499Y0087193D02*
X0004499Y0089061D01*
X0005900Y0089955D02*
X0003098Y0089955D01*
X0004032Y0090889D01*
X0003098Y0091823D01*
X0005900Y0091823D01*
X0005900Y0092717D02*
X0005900Y0093651D01*
X0005900Y0093184D02*
X0003098Y0093184D01*
X0003098Y0092717D02*
X0003098Y0093651D01*
X0003565Y0094559D02*
X0005433Y0094559D01*
X0005900Y0095026D01*
X0005900Y0095960D01*
X0005433Y0096427D01*
X0005900Y0097321D02*
X0003098Y0097321D01*
X0003098Y0098722D01*
X0003565Y0099189D01*
X0004499Y0099189D01*
X0004966Y0098722D01*
X0004966Y0097321D01*
X0004966Y0098255D02*
X0005900Y0099189D01*
X0005433Y0100084D02*
X0005900Y0100551D01*
X0005900Y0101485D01*
X0005433Y0101952D01*
X0003565Y0101952D01*
X0003098Y0101485D01*
X0003098Y0100551D01*
X0003565Y0100084D01*
X0005433Y0100084D01*
X0005900Y0102846D02*
X0003098Y0102846D01*
X0003098Y0104247D01*
X0003565Y0104714D01*
X0004032Y0104714D01*
X0004499Y0104247D01*
X0004499Y0102846D01*
X0005900Y0102846D02*
X0005900Y0104247D01*
X0005433Y0104714D01*
X0004966Y0104714D01*
X0004499Y0104247D01*
X0003565Y0096427D02*
X0003098Y0095960D01*
X0003098Y0095026D01*
X0003565Y0094559D01*
X0005900Y0079373D02*
X0005433Y0078906D01*
X0003098Y0078906D01*
D28*
X0010500Y0134504D02*
X0010500Y0171512D01*
X0010500Y0173008D02*
X0070500Y0173008D01*
X0070500Y0163008D01*
X0070500Y0143008D02*
X0070500Y0134504D01*
X0063500Y0134504D01*
X0040500Y0134504D02*
X0010500Y0134504D01*
D29*
X0180500Y0033008D03*
X0180500Y0023008D03*
X0180500Y0013008D03*
D30*
X0163420Y0013002D03*
X0157620Y0013002D03*
D31*
X0105504Y0067785D03*
X0095504Y0067785D03*
X0095496Y0078232D03*
X0105496Y0078232D03*
D32*
X0094935Y0102933D02*
X0095185Y0103184D01*
X0095185Y0103434D01*
X0094935Y0103684D01*
X0094184Y0103684D01*
X0094184Y0103184D01*
X0094434Y0102933D01*
X0094935Y0102933D01*
X0094184Y0103684D02*
X0094685Y0104184D01*
X0095185Y0104435D01*
X0093712Y0104184D02*
X0092711Y0103184D01*
X0092961Y0102933D01*
X0093462Y0102933D01*
X0093712Y0103184D01*
X0093712Y0104184D01*
X0093462Y0104435D01*
X0092961Y0104435D01*
X0092711Y0104184D01*
X0092711Y0103184D01*
X0092239Y0102933D02*
X0091238Y0102933D01*
X0092239Y0103934D01*
X0092239Y0104184D01*
X0091988Y0104435D01*
X0091488Y0104435D01*
X0091238Y0104184D01*
X0090265Y0104435D02*
X0090265Y0102933D01*
X0089765Y0102933D02*
X0090765Y0102933D01*
X0089765Y0103934D02*
X0090265Y0104435D01*
X0089292Y0104184D02*
X0089042Y0104435D01*
X0088291Y0104435D01*
X0088291Y0102933D01*
X0089042Y0102933D01*
X0089292Y0103184D01*
X0089292Y0104184D01*
X0087819Y0102933D02*
X0086818Y0102933D01*
X0087318Y0102933D02*
X0087318Y0104435D01*
X0086818Y0103934D01*
X0086346Y0103934D02*
X0086095Y0103684D01*
X0085595Y0103684D01*
X0085345Y0103934D01*
X0085345Y0104184D01*
X0085595Y0104435D01*
X0086095Y0104435D01*
X0086346Y0104184D01*
X0086346Y0103934D01*
X0086095Y0103684D02*
X0086346Y0103434D01*
X0086346Y0103184D01*
X0086095Y0102933D01*
X0085595Y0102933D01*
X0085345Y0103184D01*
X0085345Y0103434D01*
X0085595Y0103684D01*
X0084872Y0103684D02*
X0084872Y0103184D01*
X0084622Y0102933D01*
X0084122Y0102933D01*
X0083872Y0103184D01*
X0083872Y0103684D02*
X0084372Y0103934D01*
X0084622Y0103934D01*
X0084872Y0103684D01*
X0084872Y0104435D02*
X0083872Y0104435D01*
X0083872Y0103684D01*
X0083399Y0102933D02*
X0083399Y0104435D01*
X0082398Y0104435D02*
X0083399Y0102933D01*
X0082398Y0102933D02*
X0082398Y0104435D01*
X0081425Y0104435D02*
X0081425Y0102933D01*
X0080925Y0102933D02*
X0081926Y0102933D01*
X0080925Y0103934D02*
X0081425Y0104435D01*
X0081425Y0112308D02*
X0081425Y0113810D01*
X0080925Y0113309D01*
X0080925Y0112308D02*
X0081926Y0112308D01*
X0082398Y0112308D02*
X0082398Y0113810D01*
X0083399Y0112308D01*
X0083399Y0113810D01*
X0083872Y0113810D02*
X0083872Y0113059D01*
X0084372Y0113309D01*
X0084622Y0113309D01*
X0084872Y0113059D01*
X0084872Y0112559D01*
X0084622Y0112308D01*
X0084122Y0112308D01*
X0083872Y0112559D01*
X0083872Y0113810D02*
X0084872Y0113810D01*
X0085345Y0113559D02*
X0085345Y0113309D01*
X0085595Y0113059D01*
X0086095Y0113059D01*
X0086346Y0112809D01*
X0086346Y0112559D01*
X0086095Y0112308D01*
X0085595Y0112308D01*
X0085345Y0112559D01*
X0085345Y0112809D01*
X0085595Y0113059D01*
X0086095Y0113059D02*
X0086346Y0113309D01*
X0086346Y0113559D01*
X0086095Y0113810D01*
X0085595Y0113810D01*
X0085345Y0113559D01*
X0086818Y0113309D02*
X0087318Y0113810D01*
X0087318Y0112308D01*
X0086818Y0112308D02*
X0087819Y0112308D01*
X0088291Y0112308D02*
X0089042Y0112308D01*
X0089292Y0112559D01*
X0089292Y0113559D01*
X0089042Y0113810D01*
X0088291Y0113810D01*
X0088291Y0112308D01*
X0089765Y0112308D02*
X0090765Y0112308D01*
X0091238Y0112308D02*
X0092239Y0113309D01*
X0092239Y0113559D01*
X0091988Y0113810D01*
X0091488Y0113810D01*
X0091238Y0113559D01*
X0090265Y0113810D02*
X0090265Y0112308D01*
X0091238Y0112308D02*
X0092239Y0112308D01*
X0092711Y0112559D02*
X0093712Y0113559D01*
X0093712Y0112559D01*
X0093462Y0112308D01*
X0092961Y0112308D01*
X0092711Y0112559D01*
X0092711Y0113559D01*
X0092961Y0113810D01*
X0093462Y0113810D01*
X0093712Y0113559D01*
X0094184Y0113059D02*
X0094935Y0113059D01*
X0095185Y0112809D01*
X0095185Y0112559D01*
X0094935Y0112308D01*
X0094434Y0112308D01*
X0094184Y0112559D01*
X0094184Y0113059D01*
X0094685Y0113559D01*
X0095185Y0113810D01*
X0090265Y0113810D02*
X0089765Y0113309D01*
X0084078Y0015585D02*
X0083577Y0015334D01*
X0083077Y0014834D01*
X0083827Y0014834D01*
X0084078Y0014584D01*
X0084078Y0014334D01*
X0083827Y0014083D01*
X0083327Y0014083D01*
X0083077Y0014334D01*
X0083077Y0014834D01*
X0082604Y0015334D02*
X0081603Y0014334D01*
X0081854Y0014083D01*
X0082354Y0014083D01*
X0082604Y0014334D01*
X0082604Y0015334D01*
X0082354Y0015585D01*
X0081854Y0015585D01*
X0081603Y0015334D01*
X0081603Y0014334D01*
X0081131Y0014083D02*
X0080130Y0014083D01*
X0081131Y0015084D01*
X0081131Y0015334D01*
X0080881Y0015585D01*
X0080380Y0015585D01*
X0080130Y0015334D01*
X0079157Y0015585D02*
X0079157Y0014083D01*
X0078657Y0014083D02*
X0079658Y0014083D01*
X0078657Y0015084D02*
X0079157Y0015585D01*
X0078185Y0015334D02*
X0077934Y0015585D01*
X0077184Y0015585D01*
X0077184Y0014083D01*
X0077934Y0014083D01*
X0078185Y0014334D01*
X0078185Y0015334D01*
X0076711Y0014083D02*
X0075710Y0014083D01*
X0076211Y0014083D02*
X0076211Y0015585D01*
X0075710Y0015084D01*
X0075238Y0015084D02*
X0074988Y0014834D01*
X0074487Y0014834D01*
X0074237Y0015084D01*
X0074237Y0015334D01*
X0074487Y0015585D01*
X0074988Y0015585D01*
X0075238Y0015334D01*
X0075238Y0015084D01*
X0074988Y0014834D02*
X0075238Y0014584D01*
X0075238Y0014334D01*
X0074988Y0014083D01*
X0074487Y0014083D01*
X0074237Y0014334D01*
X0074237Y0014584D01*
X0074487Y0014834D01*
X0073765Y0014834D02*
X0073515Y0015084D01*
X0073264Y0015084D01*
X0072764Y0014834D01*
X0072764Y0015585D01*
X0073765Y0015585D01*
X0073765Y0014834D02*
X0073765Y0014334D01*
X0073515Y0014083D01*
X0073014Y0014083D01*
X0072764Y0014334D01*
X0072292Y0014083D02*
X0072292Y0015585D01*
X0071291Y0015585D02*
X0072292Y0014083D01*
X0071291Y0014083D02*
X0071291Y0015585D01*
X0070318Y0015585D02*
X0070318Y0014083D01*
X0070818Y0014083D02*
X0069817Y0014083D01*
X0069817Y0015084D02*
X0070318Y0015585D01*
D33*
X0066612Y0088043D03*
X0061888Y0088043D03*
X0081263Y0088043D03*
X0085987Y0088043D03*
D34*
X0083625Y0088043D03*
X0064250Y0088043D03*
D35*
X0064250Y0085681D03*
X0064250Y0091586D03*
X0083625Y0091586D03*
X0083625Y0085681D03*
D36*
X0075494Y0085713D03*
X0075494Y0091513D03*
M02*
