%
M48
M72
T01C0.02362
T02C0.03500
T03C0.04000
T04C0.05512
T05C0.12598
T06C0.14173
%
T01
X53625Y113008
X64250Y79258
X63625Y73008
X46125Y74258
X83625Y70508
X83625Y79258
X90500Y58008
X116125Y67383
X140500Y58008
X155500Y53008
X115500Y20508
X124875Y13008
X110500Y6758
X93000Y8008
X78000Y18008
X68000Y8633
X64875Y29258
X58625Y30508
X48625Y30508
X58625Y41133
T02
X100500Y13008
X120500Y9008
X120500Y17008
T03
X180500Y13008
X180500Y23008
X180500Y33008
T04
X105815Y164780
X125500Y164780
X145185Y164780
T05
X40815Y153008
X52626Y134504
T06
X64437Y153008
M30
